<svg id="bg" xmlns="http://www.w3.org/2000/svg" width="1400" height="470" viewBox="0 0 2800 940">
  <defs>
    <style>
      .cls-1 {
        fill: #f0eff1;
      }

      .cls-2 {
        fill: #f3f2f4;
      }

      .cls-2, .cls-3 {
        fill-rule: evenodd;
      }

      .cls-3 {
        fill: #ecebee;
      }
    </style>
  </defs>
  <rect id="bg-2" data-name="bg" class="cls-1" width="2800" height="940"/>
  <path id="white_lines" data-name="white lines" class="cls-2" d="M40,1498H160v806H40V1498Zm160,220H320v586H200V1718Zm160-40H480v626H360V1678Zm160,320H640v306H520V1998Zm160-140H800v446H680V1858Zm160-40H960v486H840V1818Zm160,220h120v266H1000V2038Zm160,80h120v186H1160V2118Zm160-220h120v406H1320V1898Zm160-120h120v526H1480V1778Zm160-160h120v686H1640V1618Zm160-120h120v806H1800V1498Zm160,220h120v586H1960V1718Zm160-40h120v626H2120V1678Zm160,320h120v306H2280V1998Zm160-140h120v446H2440V1858Zm160-40h120v486H2600V1818Zm160,220h120v266H2760V2038Z" transform="translate(0 -1366)"/>
  <path id="black_lines" data-name="black lines" class="cls-3" d="M40,1368H160v86H40v-86Zm160,0H320v306H200V1368Zm160,0H480v266H360V1368Zm160,0H640v586H520V1368Zm160,0H800v446H680V1368Zm160,0H960v406H840V1368Zm160,0h120v626H1000V1368Zm160,0h120v706H1160V1368Zm160,0h120v486H1320V1368Zm160,0h120v366H1480V1368Zm160,0h120v206H1640V1368Zm160,0h120v86H1800v-86Zm160,0h120v306H1960V1368Zm160,0h120v266H2120V1368Zm160,0h120v586H2280V1368Zm160,0h120v446H2440V1368Zm160,0h120v406H2600V1368Zm160,0h120v626H2760V1368Z" transform="translate(0 -1366)"/>
</svg>
