<svg xmlns="http://www.w3.org/2000/svg" viewBox="0 0 130 150.03"><defs><style>.cls-1{fill:#2cccd3;fill-rule:evenodd}</style></defs><path id="icon" class="cls-1" d="M1452.71 3124.84a10.866 10.866 0 0 0 .04-9.78c-2.61-4.93-8.29-4.09-12.96-4.09-3.7 0-3.7 5.77 0 5.77h4.02c1.25 0 3.08-.35 3.84.95a7.438 7.438 0 0 1 .19 4.36 2.132 2.132 0 0 1-2.21 1.42c-5.32.42-10.85 0-16.18 0h-19.47c-1.32 0-3.63.42-4.44-.96a7.358 7.358 0 0 1-.19-4.36c.41-1.27 1.45-1.39 2.55-1.41 6.23-.14 12.47 0 18.69 0a2.929 2.929 0 0 0 2.88-2.89v-16.15c0-3.72-5.75-3.72-5.75 0v13.25c-5.43-.04-10.87-.16-16.29.02a7.9 7.9 0 0 0-6.28 3.01c-1.64 2.13-1.68 4.63-1.62 7.2a8.755 8.755 0 0 0 .87 3.69c-18.97 6.62-36.48 21.35-38.61 42.47-2.01 19.91 11.81 36.96 28.62 45.67a76.411 76.411 0 0 0 18.95 6.74 8.31 8.31 0 0 0-1.23 4.36c-.06 2.3-.07 4.63 1.22 6.65a7.83 7.83 0 0 0 6.23 3.53v5.9c0 3.72 5.74 3.72 5.74 0v-5.87c.81-.02 1.61-.04 2.41-.05 0 .09-.01.17-.01.26v7.59c0 3.71 5.75 3.72 5.75 0v-7.59a3.028 3.028 0 0 0-.02-.31c.81 0 1.61-.01 2.41-.01v5.98c0 3.72 5.75 3.72 5.75 0v-8.88a2.92 2.92 0 0 0-2.87-2.89l-9 .06c-3.2.02-6.67.44-9.85.07-2.27-.26-2.07-2.28-2.02-4.06s.78-2.62 2.55-2.67c3.39-.1 6.79 0 10.17 0a2.9 2.9 0 0 0 1.19-.24 79.3 79.3 0 0 0 28.25-5.52c17.83-7.12 33.87-21.96 35.44-42.13 1.87-23.97-17.87-41.77-38.76-49.09zm-15.43 4.52c12.37 7.39 17.97 23.09 18.92 36.83 1.01 14.51-2.36 30.91-12.76 41.66-3.92 4.05-9 7.21-14.7 7.81a22.078 22.078 0 0 1-15.7-4.82c-11.3-8.75-15.9-24.46-16.21-38.22-.36-15.71 4.82-34.86 19.22-43.34 4.23-.01 8.46-.05 12.69-.05 2.82 0 5.68.09 8.54.13zm-69.79 44.86c-1.94-22.62 17.69-38.79 37.4-44.76a3.362 3.362 0 0 0 .91-.45q.435.09.9.15c-9.86 9.32-14.55 23.8-15.47 37.04-1.13 16.32 3.2 34.87 15.28 46.56.18.17.36.33.54.5q-3.615-.96-7.1-2.27c-15.66-5.91-30.94-19.04-32.46-36.77zm92.09 33.95a67.464 67.464 0 0 1-13.55 5.16c10.8-9.94 15.58-25.56 16.05-39.92.51-15.38-3.97-33.32-15.54-44.22a7.728 7.728 0 0 0 .86-.13 3.017 3.017 0 0 0 .79.36c17.59 5.3 35.85 18.71 37.51 38.53 1.51 17.91-11.01 32.5-26.12 40.22z" transform="translate(-1361.59 -3094.91)"/></svg>
