<svg xmlns="http://www.w3.org/2000/svg" viewBox="0 0 149.97 150"><defs><style>.cls-1{fill:#fff;fill-rule:evenodd}</style></defs><path id="icon" class="cls-1" d="M2116.35 1660.87a.757.757 0 0 1 .01-.15c-1.89.26-3.77.51-5.66.77 1.09 4.58 2.03 9.21 2.85 13.85 1.13 6.45 2.16 13.31 1.02 19.85-.37 2.15-.97 5.01-3.61 5.02-2.8.02-5.81-1.89-8.44-2.78-4.78-1.62-10.42-2.91-15.33-1.09-6.18 2.3-8.42 8.59-8.95 14.68-.57 6.42.01 14.8 5.41 19.22 4.31 3.53 10.13 3.27 15.25 2.01a57.01 57.01 0 0 0 7.53-2.55c2.05-.83 5.25-2.45 6.87-.13 1.84 2.63 1.65 6.86 1.68 9.91a64.9 64.9 0 0 1-.93 10.77c-.89 5.65-2.03 11.29-3.35 16.86a2.926 2.926 0 0 0 2.01 3.55c11.21 2.66 23.35 5.6 34.93 4.14 3.05-.38 6.34-1.12 8.64-3.33 2.49-2.41 2.83-5.87 2.03-9.09-1.31-5.32-4.37-10.01-4.31-15.69.06-5.65 4.62-7.84 9.78-8.29 4.98-.44 13.8-.62 15.87 5.25 1.59 4.5-.57 10.05-2.19 14.24-1.19 3.11-2.62 6.23-1.85 9.64.71 3.14 3.22 5.15 6.11 6.23 7.03 2.61 15.61 1.38 22.81.25 5.66-.89 11.3-2.03 16.87-3.35a2.849 2.849 0 0 0 2.01-2.02c2.66-11.21 5.6-23.35 4.14-34.92-.38-3.06-1.11-6.35-3.33-8.64-2.4-2.49-5.87-2.83-9.09-2.03-5.32 1.31-10.01 4.38-15.68 4.32-5.65-.07-7.84-4.63-8.29-9.79-.44-4.98-.62-13.8 5.25-15.87 4.49-1.59 10.04.57 14.24 2.19 3.11 1.2 6.22 2.62 9.64 1.85 3.13-.71 5.15-3.22 6.22-6.11 2.61-7.03 1.38-15.61.25-22.81-.89-5.66-2.03-11.3-3.35-16.87a2.928 2.928 0 0 0-3.54-2.01c-8.96 2.12-18.39 4.39-27.63 4.28-2.96-.03-11.41.4-11.09-4.29.17-2.45 1.59-4.84 2.41-7.13a39.823 39.823 0 0 0 1.85-6.59c.76-4.19.78-8.8-1.73-12.45-3.22-4.67-9.03-6.07-14.38-6.38-5.73-.33-12.47.24-16.97 4.22-3.32 2.94-4.39 7.47-4.01 11.75a34.881 34.881 0 0 0 1.59 7.55c.84 2.63 2.2 5.15 2.85 7.83 1.49 6.16-8.27 5.49-12.05 5.5-3.71.01-3.72 5.77 0 5.76 5.07-.01 11.87.1 15.71-3.84 4.29-4.41 1.44-10.06-.3-14.89-1.32-3.64-2.77-7.99-1.9-11.88 1.02-4.53 5.76-5.87 9.9-6.19 4.57-.35 11.81-.52 14.79 3.79 2.14 3.09 1.15 7.55.2 10.9-1.33 4.7-4.87 9.89-3.39 14.9 1.63 5.55 8.02 6.73 13.01 7.08 10.91.76 22.11-1.86 32.67-4.37l-3.54-2.01c1.08 4.58 2.03 9.21 2.84 13.85 1.13 6.46 2.16 13.31 1.03 19.85-.37 2.15-.97 5.01-3.61 5.02-2.8.02-5.81-1.89-8.44-2.78-4.78-1.62-10.42-2.91-15.33-1.09-6.18 2.3-8.42 8.59-8.95 14.68-.56 6.42.01 14.8 5.41 19.22 4.31 3.53 10.13 3.27 15.25 2.01a57.01 57.01 0 0 0 7.53-2.55c2.05-.83 5.26-2.45 6.87-.13 1.84 2.63 1.64 6.86 1.68 9.91a64.914 64.914 0 0 1-.94 10.77c-.89 5.65-2.02 11.29-3.34 16.86l2.01-2.01a241.05 241.05 0 0 1-13.85 2.85c-6.45 1.13-13.31 2.16-19.85 1.02-2.15-.37-5.01-.97-5.02-3.61-.01-2.79 1.89-5.81 2.78-8.43 1.62-4.78 2.91-10.43 1.09-15.34-2.29-6.18-8.59-8.42-14.68-8.96-6.42-.56-14.8.01-19.21 5.42-3.53 4.31-3.27 10.13-2.01 15.25a55.678 55.678 0 0 0 2.54 7.54c.83 2.05 2.45 5.25.13 6.87-2.64 1.83-6.86 1.64-9.91 1.68a64.82 64.82 0 0 1-10.77-.94c-5.66-.89-11.29-2.02-16.87-3.35.67 1.18 1.34 2.36 2.02 3.54 2.66-11.21 5.6-23.35 4.14-34.92-.39-3.06-1.12-6.35-3.34-8.64-2.4-2.49-5.87-2.83-9.09-2.03-5.32 1.31-10.01 4.38-15.68 4.32-5.65-.07-7.84-4.63-8.29-9.79-.44-4.98-.62-13.8 5.25-15.87 4.49-1.59 10.04.57 14.24 2.19 3.1 1.2 6.22 2.62 9.64 1.85 3.13-.71 5.15-3.22 6.23-6.11 2.61-7.03 1.38-15.61.25-22.81-.89-5.66-2.03-11.3-3.35-16.87-.8-3.33-5.41-2.32-5.66.76-.01.05-.01.1-.02.15-.3 3.7 5.46 3.68 5.77 0z" transform="translate(-2078.09 -1625.31)"/></svg>