<svg xmlns="http://www.w3.org/2000/svg" viewBox="0 0 338 140.032"><defs><style>.cls-1{fill:#fff;fill-rule:evenodd}</style></defs><path id="logo" class="cls-1" d="M305.311 140.912a2.56 2.56 0 0 1-2.253-2.553l-.2-6.982.013.008c-.478-11.511-.792-23.027-1.113-34.543q-10.842 40.191-21.081 80.523c0 .009-.007.018-.01.027a3.45 3.45 0 0 1-4.235 2.96 4.259 4.259 0 0 1-3.475-4.382h.01c-.557-9.736-1.125-19.476-1.512-29.22q-1.595-40.179-1.906-80.382l-2.628 8.087c-6.2 19-12.5 37.962-18.724 56.95l-6.648 18.686a3.981 3.981 0 0 1-.153.431l-.061.171-.031.036a2.8 2.8 0 0 1-1.127 1.276l-6.286 1.673a207.774 207.774 0 0 1-28.5 5.922 6.24 6.24 0 0 1-4.577-1.461c-.939-.919-.7-1.829.634-2.012 11.262-1.542 22.593-5.715 33.507-8.83l7.23-21.388c9.276-28.215 18.377-56.225 27.277-84.564.682-2.17 7.414-.116 7.428 1.894q.1 14.813.347 29.623.672 39.59 2.19 79.166c7.467-27.663 14.321-55.485 21.451-83.238.592-2.3 7.661-.1 7.762 1.979.978 20.069 1.227 40.162 2.04 60.238 5.049-1.211 10.078-1.7 15.111-2.977 1.858-.471 4.009-.728 5.6.289.809.515 2.064.315.392 1.247-7.887 4.4-14.365 7.94-21.407 10.209.005.002-4.076 1.278-5.065 1.137zm50.653-1.976c-2.237 0-4.543-1.939-5.737-4.825-1.882-4.548 3.045-22.29 9.061-29.391 1.617-1.909 3.367-2.877 5.2-2.877 3.1 0 5.527 2.781 5.791 3.095 4.476 8.655-2.581 19.749-7.252 27.094-.72 1.131-1.4 2.2-1.951 3.128-1.466 2.471-3.233 3.776-5.11 3.776zm9.578-29.8c-1.318 0-2.938 3.4-3.4 4.445-1.028 2.168-4.331 9.379-3.48 10.737a.7.7 0 0 0 .615.339 1.428 1.428 0 0 0 .725-.248c3.647-2.2 7.368-10.811 6.643-13.984-.198-.857-.568-1.29-1.103-1.29zm14.793 25.931c-3.816 0-6.764-2.65-9.015-8.1-6.126-14.841 9.132-50.135 10.36-52.927a4 4 0 0 1 .909-.1 5.932 5.932 0 0 1 2.531.607c1.887.89 2.991 1.856 1.2 6.967-1.87 5.34-8.905 30.851-8.114 43.912.258 4.268 2.257 5.164 3.888 5.164 3 0 10.241-4.2 11.75-5.472l.54 2.174c-.727.108-3.374 3.4-6.567 5.361a14.929 14.929 0 0 1-7.482 2.413zm51.922-3.01a.629.629 0 0 1-.3-.09c-4.774-2.7-4.566-11.359-4.467-15.521.013-.528.024-.99.024-1.368a7.721 7.721 0 0 0-1.528-4.405 4.042 4.042 0 0 1-.943-2.441l.007-.089c.157-2.044.294-2.7 1.332-2.7a3.709 3.709 0 0 1 .707.08.633.633 0 0 0 .123.012c1.588 0 3.4-7.388 7.758-31.622.756-4.2 1.353-7.525 1.72-9.2.471-2.154 1.293-3.247 2.443-3.247 1.438 0 2.943 1.591 2.959 1.607.041.04 2.162 2.132.932 8.068-.257 1.237-.687 3.153-1.185 5.372-3.332 14.842-4.962 23.106-4.038 24.27a.608.608 0 0 0 .482.241c1.628-.024 14.278-2.065 17.416-2.575l-1.124 6.118c-1.388.567-12.161 4.909-16.981 7.729-5.448 3.188-5.265 13.209-4.366 15.442a4.9 4.9 0 0 1-.358 3.878.859.859 0 0 1-.613.44zm41.491-31.644c6.408 1.936 5.8 7.224 5.264 11.889-.069.6-.135 1.174-.182 1.72-.077.889-.175 1.732-.269 2.548-.407 3.513-.729 6.288 1.568 6.919a2.905 2.905 0 0 0 .759.094 15.52 15.52 0 0 0 6.686-1.929v.612c0 .051 1.6-.129.338 1.97-1.755 2.921-4.859 6.115-7.727 6.5-.177 0-.36-.006-.546-.017-3.395-.2-5.927-2.456-7.526-6.7a29.182 29.182 0 0 1-1.6-10.567 2.815 2.815 0 0 0-.445-2.046.917.917 0 0 0-.677-.289c-1.993 0-5.626 6.3-6.654 8.477-1.622 3.43-5.879 10.512-8.681 10.512-1.6 0-2.331-2.689-2.657-4.945-1.717-11.867 8.032-43.717 11.583-53.939 1-2.889 2.366-4.481 3.836-4.481a1.912 1.912 0 0 1 .875.205c3.6 2.8 2.133 8.719 2.118 8.779l-11.543 36.946-.051.077c.048-.051 5.543-5.216 9.344-9.671 2.1-2.455 3.788-2.913 4.9-2.971a5.76 5.76 0 0 1 1.287.306zm64.494-2.9c-.058.794-.975 1.713-2.469 2.525a1.8 1.8 0 0 1-.824.258c-.932 0-1.049-1.6-1.05-1.618v-.077l-.033-.071a1.482 1.482 0 0 0-1.367-1c-3.666 0-11.277 14.905-13.552 20.57-2.349 5.85-1.925 8.62-1.619 9.564a3.012 3.012 0 0 1-1.306.284 4.747 4.747 0 0 1-2.392-.735c-2.575-1.514-3.329-4.826-2.07-9.084 1.305-4.412 2.71-25.373 2.769-26.264 0-.72.218-2.7 1.175-2.7a2.624 2.624 0 0 1 1.566.843c2.9 2.553 2.55 7.571 2.451 8.552l-.015.145c.359-1.385 6.227-6.367 10.047-6.367a5.029 5.029 0 0 1 .721.066s8.293.604 7.968 5.104zm-192.156 12.763c-.916 5.2-11.911 18.137-12.027 18.267l-.2.228.161.26c1.289 2.082 3.436 3.137 6.384 3.137 3.712 0 7.711-1.67 9.568-2.555l-.051 2.027c-2.1 3.258-6.479 6.862-11.97 6.866a12.894 12.894 0 0 1-9.4-4.141c-2.879-2.956-3.582-7.791-2.088-14.373a56.468 56.468 0 0 1 4.685-12.489c1.83-3.517 6.393-8.39 10.2-8.39 0 0 6.652.309 4.738 11.163zm-6.5-2.979c-1.318 0-2.938 3.4-3.4 4.445-1.028 2.169-4.331 9.379-3.48 10.738a.7.7 0 0 0 .615.338 1.438 1.438 0 0 0 .725-.247c3.647-2.2 7.368-10.812 6.643-13.985-.203-.855-.573-1.286-1.108-1.286zM506.3 101.5c-.916 5.2-11.911 18.136-12.026 18.266l-.2.228.16.261c1.289 2.081 3.436 3.136 6.384 3.136 3.713 0 7.711-1.67 9.568-2.555l-1.63 3.532a12.5 12.5 0 0 1-10.391 5.361 12.893 12.893 0 0 1-9.4-4.141c-2.88-2.955-3.582-7.791-2.089-14.372a56.437 56.437 0 0 1 4.685-12.489c1.83-3.517 6.393-8.39 10.2-8.39-.003 0 6.647.308 4.739 11.163zm-6.5-2.98c-1.318 0-2.938 3.4-3.4 4.446-1.028 2.168-4.331 9.378-3.479 10.737a.7.7 0 0 0 .615.339 1.434 1.434 0 0 0 .725-.248c3.646-2.2 7.367-10.812 6.642-13.985-.203-.855-.577-1.289-1.112-1.289zm-89.017-16.746s-4.723 14.267-5.195 15.762 4.116.34 4.116.34 4.858-1.053 10.055-2.051c3.94-.757 4.115 1.253 4.115 1.253.861 3.261-2.969 5.622-2.969 5.622-4.791 1.97-14.643 5.095-16.734 5.231a1.956 1.956 0 0 0-2.092 1.834s-4.656 17.392.019 18.577 11.924-3.155 13.274-4.174 3.306-2.921 3.576.34-3.778 7.609-7.895 9.658-8.5 1.28-12.821-1.777-7.557-9.376-6.478-18.14 8.165-28.738 9.11-30.979-.166-2.735-.166-2.735c-1.987-1.308-2.871-3.584-3.68-5.826a1.584 1.584 0 0 1 1.441-2.346s5.982-1.459 7.264-1.8 1.349-1.563 1.889-2.649.877-1.223 2.6-1.282 3.171 2.536 3.171 2.536a2.057 2.057 0 0 0 1.178.048s16.151-1.095 16.372 3.137c.134 2.552-3.344 3.718-6.108 3.93s-12.529 1.088-13.538 4.041z" transform="translate(-200.25 -40.406)"/></svg>