<svg xmlns="http://www.w3.org/2000/svg" style="display:none;"><defs><style>.cls-1{fill:#222;fill-rule:evenodd}</style><style>.cls-1{fill:#fff;fill-rule:evenodd;filter:url(#filter)}</style><filter id="clear - appears when typing-filter" x="2297" y="424.25" width="35" height="37.75" filterUnits="userSpaceOnUse"><feOffset result="offset" dy="4" in="SourceAlpha"/><feGaussianBlur result="blur" stdDeviation="1.414"/><feFlood result="flood" flood-color="#9ec2e2" flood-opacity=".5"/><feComposite result="composite" operator="in" in2="blur"/><feBlend result="blend" in="SourceGraphic"/></filter><style>.cls-1{fill:#717171;fill-rule:evenodd}</style><style>.cls-1{fill:#fff;fill-rule:evenodd;filter:url(#filter)}</style><filter id="Search-filter" x="471" y="415" width="53" height="56" filterUnits="userSpaceOnUse"><feOffset result="offset" dy="4" in="SourceAlpha"/><feGaussianBlur result="blur" stdDeviation="1.414"/><feFlood result="flood" flood-color="#9ec2e2" flood-opacity=".5"/><feComposite result="composite" operator="in" in2="blur"/><feBlend result="blend" in="SourceGraphic"/></filter></defs><symbol viewBox="0 0 16.04 16.25" id="icon-arrow"><title>arrow</title><path id="arrow-_" data-name="&gt;" class="cls-1" d="M1792.24 1052.54l-3.9 4.43a1.5 1.5 0 0 0 0 1.93 1.094 1.094 0 0 0 1.7 0l5.95-6.76a1.5 1.5 0 0 0 0-1.93l-5.95-6.76a1.094 1.094 0 0 0-1.7 0 1.5 1.5 0 0 0 0 1.93l3.9 4.43h-10.7a1.376 1.376 0 0 0 0 2.73h10.7z" transform="translate(-1780.34 -1043.06)"/></symbol><symbol viewBox="0 0 35 37.75" id="icon-clear - appears when typing"><title>clear - appears when typing</title><path id="clear - appears when typing-clear_-_appears_when_typing" data-name="clear - appears when typing" class="cls-1" d="M2324.97 428.845a15.649 15.649 0 1 0 0 22.131 15.647 15.647 0 0 0 0-22.131zm-3.29 16.144l-2.82 2.828-4.95-4.95-4.95 4.95-2.83-2.828 4.95-4.95-4.95-4.95 2.83-2.828 4.95 4.95 4.95-4.95 2.82 2.828-4.95 4.95z" transform="translate(-2297 -424.25)"/></symbol><symbol viewBox="0 0 31.31 31.312" id="icon-clear"><title>clear</title><path id="clear-clear" class="cls-1" d="M2326.97 558.845a15.649 15.649 0 1 0 0 22.131 15.647 15.647 0 0 0 0-22.131zm-3.29 16.143l-2.82 2.829-4.95-4.95-4.95 4.95-2.83-2.829 4.95-4.949-4.95-4.95 2.83-2.828 4.95 4.949 4.95-4.949 2.82 2.828-4.95 4.95z" transform="translate(-2300.25 -554.25)"/></symbol><symbol viewBox="0 0 53 56" id="icon-Search"><title>Search</title><path id="Search-Search" class="cls-1" d="M520.617 463.617a4.7 4.7 0 0 1-6.64 0l-8.285-8.287a22.017 22.017 0 1 1 6.639-6.639l8.286 8.287a4.693 4.693 0 0 1 0 6.639zM493.91 421.26a15.649 15.649 0 1 0 15.649 15.649 15.649 15.649 0 0 0-15.649-15.649z" transform="translate(-471 -415)"/></symbol></svg>