<svg xmlns="http://www.w3.org/2000/svg" width="338" height="140.032" viewBox="0 0 338 140.032">
  <defs>
    <style>
      .cls-1 {
        fill: #fff;
        fill-rule: evenodd;
      }
    </style>
  </defs>
  <path id="logo" class="cls-1" d="M305.311,140.912a2.56,2.56,0,0,1-2.253-2.553l-0.2-6.982,0.013,0.008c-0.478-11.511-.792-23.027-1.113-34.543q-10.842,40.191-21.081,80.523c0,0.009-.007.018-0.01,0.027a3.45,3.45,0,0,1-4.235,2.96,4.259,4.259,0,0,1-3.475-4.382l0.01,0c-0.557-9.736-1.125-19.476-1.512-29.22q-1.595-40.179-1.906-80.382-1.314,4.043-2.628,8.087c-6.2,19-12.5,37.962-18.724,56.95l-6.648,18.686a3.981,3.981,0,0,1-.153.431l-0.061.171-0.031.036a2.8,2.8,0,0,1-1.127,1.276l-6.286,1.673a207.774,207.774,0,0,1-28.5,5.922,6.24,6.24,0,0,1-4.577-1.461c-0.939-.919-0.7-1.829.634-2.012,11.262-1.542,22.593-5.715,33.507-8.83l7.23-21.388c9.276-28.215,18.377-56.225,27.277-84.564,0.682-2.17,7.414-.116,7.428,1.894q0.1,14.813.347,29.623,0.672,39.59,2.19,79.166c7.467-27.663,14.321-55.485,21.451-83.238,0.592-2.3,7.661-.1,7.762,1.979,0.978,20.069,1.227,40.162,2.04,60.238,5.049-1.211,10.078-1.7,15.111-2.977,1.858-.471,4.009-0.728,5.6.289,0.809,0.515,2.064.315,0.392,1.247-7.887,4.4-14.365,7.94-21.407,10.209C310.381,139.777,306.3,141.053,305.311,140.912Zm50.653-1.976c-2.237,0-4.543-1.939-5.737-4.825-1.882-4.548,3.045-22.29,9.061-29.391,1.617-1.909,3.367-2.877,5.2-2.877,3.1,0,5.527,2.781,5.791,3.095,4.476,8.655-2.581,19.749-7.252,27.094-0.72,1.131-1.4,2.2-1.951,3.128-1.466,2.471-3.233,3.776-5.11,3.776h0Zm9.578-29.8c-1.318,0-2.938,3.4-3.4,4.445-1.028,2.168-4.331,9.379-3.48,10.737a0.7,0.7,0,0,0,.615.339,1.428,1.428,0,0,0,.725-0.248c3.647-2.2,7.368-10.811,6.643-13.984C366.447,109.568,366.077,109.135,365.542,109.135Zm14.793,25.931c-3.816,0-6.764-2.65-9.015-8.1-6.126-14.841,9.132-50.135,10.36-52.927a4,4,0,0,1,.909-0.1,5.932,5.932,0,0,1,2.531.607c1.887,0.89,2.991,1.856,1.2,6.967-1.87,5.34-8.905,30.851-8.114,43.912,0.258,4.268,2.257,5.164,3.888,5.164,3,0,10.241-4.2,11.75-5.472l0.54,2.174c-0.727.108-3.374,3.4-6.567,5.361A14.929,14.929,0,0,1,380.335,135.066Zm51.922-3.01a0.629,0.629,0,0,1-.3-0.09c-4.774-2.7-4.566-11.359-4.467-15.521,0.013-.528.024-0.99,0.024-1.368a7.721,7.721,0,0,0-1.528-4.405,4.042,4.042,0,0,1-.943-2.441l0.007-.089c0.157-2.044.294-2.7,1.332-2.7a3.709,3.709,0,0,1,.707.08,0.633,0.633,0,0,0,.123.012c1.588,0,3.4-7.388,7.758-31.622,0.756-4.2,1.353-7.525,1.72-9.2,0.471-2.154,1.293-3.247,2.443-3.247,1.438,0,2.943,1.591,2.959,1.607,0.041,0.04,2.162,2.132.932,8.068-0.257,1.237-.687,3.153-1.185,5.372-3.332,14.842-4.962,23.106-4.038,24.27a0.608,0.608,0,0,0,.482.241c1.628-.024,14.278-2.065,17.416-2.575l-1.124,6.118c-1.388.567-12.161,4.909-16.981,7.729-5.448,3.188-5.265,13.209-4.366,15.442a4.9,4.9,0,0,1-.358,3.878A0.859,0.859,0,0,1,432.257,132.056Zm41.491-31.644c6.408,1.936,5.8,7.224,5.264,11.889-0.069.6-.135,1.174-0.182,1.72-0.077.889-.175,1.732-0.269,2.548-0.407,3.513-.729,6.288,1.568,6.919a2.905,2.905,0,0,0,.759.094,15.52,15.52,0,0,0,6.686-1.929v0.612c0,0.051,1.6-.129.338,1.97-1.755,2.921-4.859,6.115-7.727,6.5-0.177,0-.36-0.006-0.546-0.017-3.395-.2-5.927-2.456-7.526-6.7a29.182,29.182,0,0,1-1.6-10.567,2.815,2.815,0,0,0-.445-2.046,0.917,0.917,0,0,0-.677-0.289c-1.993,0-5.626,6.3-6.654,8.477-1.622,3.43-5.879,10.512-8.681,10.512-1.6,0-2.331-2.689-2.657-4.945-1.717-11.867,8.032-43.717,11.583-53.939,1-2.889,2.366-4.481,3.836-4.481a1.912,1.912,0,0,1,.875.205c3.6,2.8,2.133,8.719,2.118,8.779l-11.543,36.946-0.051.077c0.048-.051,5.543-5.216,9.344-9.671,2.1-2.455,3.788-2.913,4.9-2.971A5.76,5.76,0,0,1,473.748,100.412Zm64.494-2.9c-0.058.794-.975,1.713-2.469,2.525a1.8,1.8,0,0,1-.824.258c-0.932,0-1.049-1.6-1.05-1.618l0-.077-0.033-.071a1.482,1.482,0,0,0-1.367-1c-3.666,0-11.277,14.905-13.552,20.57-2.349,5.85-1.925,8.62-1.619,9.564a3.012,3.012,0,0,1-1.306.284,4.747,4.747,0,0,1-2.392-.735c-2.575-1.514-3.329-4.826-2.07-9.084,1.305-4.412,2.71-25.373,2.769-26.264,0-.72.218-2.7,1.175-2.7a2.624,2.624,0,0,1,1.566.843c2.9,2.553,2.55,7.571,2.451,8.552l-0.015.145c0.359-1.385,6.227-6.367,10.047-6.367a5.029,5.029,0,0,1,.721.066S538.567,93.008,538.242,97.508ZM346.086,110.276c-0.916,5.2-11.911,18.137-12.027,18.267l-0.2.228,0.161,0.26c1.289,2.082,3.436,3.137,6.384,3.137,3.712,0,7.711-1.67,9.568-2.555l-0.051,2.027c-2.1,3.258-6.479,6.862-11.97,6.866a12.894,12.894,0,0,1-9.4-4.141c-2.879-2.956-3.582-7.791-2.088-14.373a56.468,56.468,0,0,1,4.685-12.489c1.83-3.517,6.393-8.39,10.2-8.39C341.348,99.113,348,99.422,346.086,110.276Zm-6.5-2.979c-1.318,0-2.938,3.4-3.4,4.445-1.028,2.169-4.331,9.379-3.48,10.738a0.7,0.7,0,0,0,.615.338,1.438,1.438,0,0,0,.725-0.247c3.647-2.2,7.368-10.812,6.643-13.985C340.486,107.731,340.116,107.3,339.581,107.3ZM506.3,101.5c-0.916,5.2-11.911,18.136-12.026,18.266l-0.2.228,0.16,0.261c1.289,2.081,3.436,3.136,6.384,3.136,3.713,0,7.711-1.67,9.568-2.555l-1.63,3.532a12.5,12.5,0,0,1-10.391,5.361,12.893,12.893,0,0,1-9.4-4.141c-2.88-2.955-3.582-7.791-2.089-14.372a56.437,56.437,0,0,1,4.685-12.489c1.83-3.517,6.393-8.39,10.2-8.39C501.558,90.337,508.208,90.645,506.3,101.5Zm-6.5-2.98c-1.318,0-2.938,3.4-3.4,4.446-1.028,2.168-4.331,9.378-3.479,10.737a0.7,0.7,0,0,0,.615.339,1.434,1.434,0,0,0,.725-0.248c3.646-2.2,7.367-10.812,6.642-13.985C500.7,98.954,500.326,98.52,499.791,98.52ZM410.783,81.774s-4.723,14.267-5.195,15.762,4.116,0.34,4.116.34,4.858-1.053,10.055-2.051c3.94-.757,4.115,1.253,4.115,1.253,0.861,3.261-2.969,5.622-2.969,5.622-4.791,1.97-14.643,5.095-16.734,5.231a1.956,1.956,0,0,0-2.092,1.834s-4.656,17.392.019,18.577,11.924-3.155,13.274-4.174,3.306-2.921,3.576.34-3.778,7.609-7.895,9.658-8.5,1.28-12.821-1.777-7.557-9.376-6.478-18.14,8.165-28.738,9.11-30.979-0.166-2.735-.166-2.735c-1.987-1.308-2.871-3.584-3.68-5.826a1.584,1.584,0,0,1,1.441-2.346s5.982-1.459,7.264-1.8,1.349-1.563,1.889-2.649,0.877-1.223,2.6-1.282,3.171,2.536,3.171,2.536a2.057,2.057,0,0,0,1.178.048s16.151-1.095,16.372,3.137c0.134,2.552-3.344,3.718-6.108,3.93s-12.529,1.088-13.538,4.041Z" transform="translate(-200.25 -40.406)"/>
</svg>
