<svg xmlns="http://www.w3.org/2000/svg" width="22" height="40" viewBox="0 0 22 40">
  <defs>
    <style>
      .cls-1 {
        fill: #fff;
        fill-rule: evenodd;
      }
    </style>
  </defs>
  <path id="arrow_-_from_bottom" data-name="arrow - from bottom" class="cls-1" d="M991.839,1870.85a2.775,2.775,0,0,1,4.064,0l16.257,17.01a3.108,3.108,0,0,1,0,4.25,2.8,2.8,0,0,1-4.07,0l-16.251-17.01A3.1,3.1,0,0,1,991.839,1870.85Zm0,34.02,16.251-17.01a2.782,2.782,0,0,1,4.07,0,3.108,3.108,0,0,1,0,4.25L995.9,1909.12a2.791,2.791,0,0,1-4.064,0A3.1,3.1,0,0,1,991.839,1904.87Z" transform="translate(-991 -1870)"/>
</svg>
