<svg xmlns="http://www.w3.org/2000/svg" style="display:none;"><symbol viewBox="0 0 16 16" id="icon-googlehangouts"><title>googlehangouts</title><path d="M8 0C4.133 0 1 3.133 1 7c0 3.667 3.333 6.667 7 6.667V16c4.233-2.067 7-5.467 7-9 0-3.867-3.133-7-7-7zM4.667 8h1.666v1.667c.734 0 1.334-.734 1.334-1.667V5h-3v3zm4-3v3h1.666v1.667c.734 0 1.334-.734 1.334-1.667V5h-3z"/></symbol><symbol viewBox="0 0 16 16" id="icon-instagram"><title>instagram</title><path d="M8 0C5.827 0 5.555.01 4.702.048 3.85.088 3.27.222 2.76.42a3.908 3.908 0 0 0-1.417.923c-.445.444-.72.89-.923 1.417-.198.51-.333 1.09-.372 1.942C.008 5.555 0 5.827 0 8s.01 2.445.048 3.298c.04.852.174 1.433.372 1.942.204.526.478.973.923 1.417.444.445.89.72 1.417.923.51.198 1.09.333 1.942.372.853.04 1.125.048 3.298.048s2.445-.01 3.298-.048c.852-.04 1.433-.174 1.942-.372a3.908 3.908 0 0 0 1.417-.923c.445-.444.72-.89.923-1.417.198-.51.333-1.09.372-1.942.04-.853.048-1.125.048-3.298s-.01-2.445-.048-3.298c-.04-.852-.174-1.433-.372-1.942a3.908 3.908 0 0 0-.923-1.417A3.886 3.886 0 0 0 13.24.42c-.51-.198-1.09-.333-1.942-.372C10.445.008 10.173 0 8 0zm0 1.44c2.136 0 2.39.01 3.233.048.78.036 1.203.166 1.485.276.374.145.64.318.92.598.28.28.453.546.598.92.11.282.24.705.276 1.485.038.844.047 1.097.047 3.233s-.01 2.39-.05 3.233c-.04.78-.17 1.203-.28 1.485-.15.374-.32.64-.6.92-.28.28-.55.453-.92.598-.28.11-.71.24-1.49.276-.85.038-1.1.047-3.24.047s-2.39-.01-3.24-.05c-.78-.04-1.21-.17-1.49-.28a2.49 2.49 0 0 1-.92-.6c-.28-.28-.46-.55-.6-.92-.11-.28-.24-.71-.28-1.49-.03-.84-.04-1.1-.04-3.23s.01-2.39.04-3.24c.04-.78.17-1.21.28-1.49.14-.38.32-.64.6-.92.28-.28.54-.46.92-.6.28-.11.7-.24 1.48-.28.85-.03 1.1-.04 3.24-.04zm0 2.452a4.108 4.108 0 1 0 0 8.215 4.108 4.108 0 0 0 0-8.215zm0 6.775a2.667 2.667 0 1 1 0-5.334 2.667 2.667 0 0 1 0 5.334zm5.23-6.937a.96.96 0 1 1-1.92 0 .96.96 0 0 1 1.92 0z"/></symbol><symbol viewBox="0 0 158.75 158.75" id="icon-logo"><title>logo</title><path d="M78.562-.077L7.996 42.676v19.297l44.672 41.801 10.921-11.671-32.198-30.13h94.25l-32.198 30.13 10.921 11.671 44.672-41.8h.092V42.675h-.001z" fill="#373737" stroke-width=".067" stroke-dasharray=".06724758,.26899032"/><path fill="#373737" stroke-width=".554" stroke-linecap="round" stroke-linejoin="round" paint-order="stroke fill markers" d="M29.865 45.323h98.702v30.24H29.865z"/><path fill="#c57451" fill-rule="evenodd" stroke-width="2.155" stroke-linecap="round" stroke-linejoin="round" paint-order="stroke fill markers" d="M76.043 47.672h4.838v5.243h-4.838z"/><path fill="#909090" fill-rule="evenodd" stroke-width="2.311" stroke-linecap="round" stroke-linejoin="round" paint-order="stroke fill markers" d="M63.248 14.132h5.19v5.62h-5.19z"/><path d="M76.584 82.495l-37.03 39.774h21.838l26.89-28.883z" fill="#373737" stroke-width=".317" stroke-linecap="round" stroke-linejoin="round" paint-order="stroke fill markers"/><path d="M81.983 82.49L70.285 93.383l26.893 28.887h21.84z" fill="#373737" stroke-width=".317" stroke-linecap="round" stroke-linejoin="round" paint-order="stroke fill markers"/><path d="M78.562 1.988L45.956 21.743h65.212z" fill="#a7a7a7" stroke-width="1.03" stroke-linecap="round" stroke-linejoin="round" paint-order="stroke fill markers"/><path d="M78.562 1.78L13.003 41.5c.14.33.246.685.291 1.05.783-.211 1.562-.43 2.339-.66l62.93-38.126 65.343 39.59h.001v.102c.327-.443.796-1.07 1.08-1.43zM10.52 60.866v.271l.09-.138c-.03-.047-.06-.088-.09-.133zm100.468.346h-.045c.013.046.026.078.041.134h.033l-.029-.138zm-68.523 0h.136zm1.897 0c.294.02.588.03.882 0zm38.832.376c-.047 0-.1 0-.153.019h.224c-.024 0-.046-.02-.07-.02zm-42.01 27.555c.052.046.108.101.163.154.021-.047.044-.092.063-.139-.082 0-.15-.02-.227-.02zm70.579 4.765c-.047.062-.092.125-.14.187.096-.025.165-.047.23-.062-.032-.041-.06-.084-.09-.125zm.01.205l-.258.123c-.11.14-.22.284-.328.427zm-1.683 1.575l-.372.17c.022.04.04.082.057.123zm-57.975 1.929c-.119.074-.239.146-.357.22.164-.019.363-.025.55-.04zm55.427.455a1.36 1.36 0 0 1-.11.05c-.005.022-.009.047-.015.067z" fill="#a7a7a7" stroke-width=".065" stroke-dasharray=".06484244,.25936974"/><path d="M1.56 128.286v30.387h30.388v-30.387zm15.18 8.73c.585 0 1.18.053 1.787.158.607.106 1.227.265 1.861.476v1.644a10.387 10.387 0 0 0-1.811-.683 6.416 6.416 0 0 0-1.644-.226c-.918 0-1.628.178-2.128.535-.496.356-.742.863-.742 1.52 0 .55.163.967.491 1.25.334.278.963.504 1.886.677l1.019.207c1.257.239 2.184.662 2.78 1.268.6.601.9 1.408.9 2.42 0 1.208-.406 2.123-1.218 2.746-.807.624-1.992.936-3.556.936-.59 0-1.218-.066-1.886-.2-.662-.133-1.35-.33-2.062-.592v-1.737a9.868 9.868 0 0 0 2.012.869 6.766 6.766 0 0 0 1.936.292c.963 0 1.705-.19 2.229-.567.523-.379.784-.918.784-1.62 0-.611-.189-1.09-.567-1.436-.373-.345-.988-.603-1.845-.776l-1.025-.2c-1.258-.25-2.169-.643-2.73-1.177-.563-.535-.843-1.277-.843-2.228 0-1.102.387-1.97 1.16-2.605.78-.634 1.85-.95 3.213-.95z" fill="#6f7451" stroke-width="2.429" stroke-linecap="round" stroke-linejoin="round" paint-order="stroke fill markers"/><g style="line-height:1.25" font-weight="400" font-size="74.667" font-family="sans-serif" letter-spacing="0" word-spacing="0" fill="#fff"><path d="M21.834 134.219v2.676q-1.563-.747-2.949-1.114-1.386-.367-2.677-.367-2.242 0-3.464.87-1.21.87-1.21 2.473 0 1.345.802 2.038.815.68 3.07 1.1l1.658.34q3.071.585 4.525 2.066 1.467 1.467 1.467 3.94 0 2.948-1.983 4.47-1.97 1.522-5.789 1.522-1.44 0-3.07-.326-1.617-.326-3.356-.965v-2.826q1.67.937 3.274 1.413 1.603.476 3.152.476 2.351 0 3.628-.924 1.277-.924 1.277-2.636 0-1.495-.923-2.337-.91-.843-3.003-1.264l-1.672-.326q-3.07-.611-4.443-1.916-1.372-1.304-1.372-3.628 0-2.69 1.889-4.239 1.902-1.549 5.23-1.549 1.428 0 2.909.258 1.48.258 3.03.775zM27.336 133.553h2.745v8.315h9.973v-8.315H42.8v20.286h-2.745v-9.66h-9.973v9.66h-2.745zM48.26 133.553h12.827v2.31H51.005v6.005h9.661v2.31h-9.66v7.351h10.326v2.31H48.26zM75.49 144.328q.883.299 1.712 1.277.842.978 1.685 2.69l2.785 5.544h-2.948l-2.596-5.204q-1.005-2.038-1.956-2.704-.938-.666-2.568-.666h-2.99v8.574H65.87v-20.286h6.196q3.478 0 5.19 1.454 1.712 1.454 1.712 4.389 0 1.915-.897 3.179-.883 1.264-2.581 1.753zm-6.875-8.52v7.202h3.45q1.985 0 2.99-.91 1.02-.925 1.02-2.704 0-1.78-1.02-2.677-1.005-.91-2.99-.91zM85.218 133.553h2.745v17.976h9.878v2.31H85.218zM107.963 135.414q-2.989 0-4.755 2.229-1.753 2.228-1.753 6.073 0 3.832 1.753 6.06 1.766 2.229 4.755 2.229 2.99 0 4.729-2.229 1.753-2.228 1.753-6.06 0-3.845-1.753-6.073-1.74-2.229-4.729-2.229zm0-2.228q4.267 0 6.821 2.867 2.555 2.853 2.555 7.663 0 4.797-2.555 7.664-2.554 2.853-6.82 2.853-4.28 0-6.849-2.853-2.554-2.854-2.554-7.664t2.554-7.663q2.568-2.867 6.848-2.867zM136.823 135.116v2.894q-1.386-1.291-2.962-1.93-1.563-.638-3.329-.638-3.478 0-5.326 2.133-1.848 2.12-1.848 6.141 0 4.009 1.848 6.142 1.848 2.12 5.326 2.12 1.766 0 3.329-.64 1.576-.638 2.962-1.929v2.867q-1.44.979-3.057 1.468-1.604.489-3.397.489-4.606 0-7.256-2.813-2.65-2.826-2.65-7.704 0-4.891 2.65-7.704 2.65-2.826 7.256-2.826 1.82 0 3.424.49 1.617.475 3.03 1.44zM141.09 133.553h2.744v8.574l9.103-8.574h3.533l-10.068 9.457 10.788 10.829h-3.614l-9.742-9.77v9.77h-2.745z"/></g><path fill="#c57451" fill-rule="evenodd" stroke-width="2.311" stroke-linecap="round" stroke-linejoin="round" paint-order="stroke fill markers" d="M61.642 55.512h5.19v5.62h-5.19z"/><path fill="#909090" fill-rule="evenodd" stroke-width="2.311" stroke-linecap="round" stroke-linejoin="round" paint-order="stroke fill markers" d="M84.28 35.357h5.19v5.621h-5.19zM76.513 25.715h5.19v5.621h-5.19zM67.423 39.946h5.19v5.621h-5.19z"/><path fill="#c57451" fill-rule="evenodd" stroke-width="2.311" stroke-linecap="round" stroke-linejoin="round" paint-order="stroke fill markers" d="M87.066 50.697h5.19v5.62h-5.19z"/><path fill="#c54751" fill-rule="evenodd" stroke-width="2.548" stroke-linecap="round" stroke-linejoin="round" paint-order="stroke fill markers" d="M76.87 62.756h5.723v6.2H76.87z"/><path fill="#c54751" fill-rule="evenodd" stroke-width="1.827" stroke-linecap="round" stroke-linejoin="round" paint-order="stroke fill markers" d="M54.36 71.838h4.84v3.768h-4.84z"/><path fill="#c54751" fill-rule="evenodd" stroke-width="2.548" stroke-linecap="round" stroke-linejoin="round" paint-order="stroke fill markers" d="M94.21 67.503h5.722v6.2h-5.723z"/></symbol><symbol viewBox="0 0 16 16" id="icon-patreon"><title>patreon</title><path d="M0 7.78C0 4.053 3.027.56 7.018.06c2.86-.333 5.023.765 6.52 2.196 1.396 1.33 2.228 3.028 2.428 5.025.166 2-.266 3.73-1.43 5.36-1.164 1.6-3.46 3.36-6.32 3.36H4.324V8.32c.034-1.697.6-3.162 2.66-3.86 1.797-.533 3.893.465 4.525 2.362.66 2.03-.3 3.394-1.43 4.226-1.14.832-2.9.832-4.06.033v2.63c.76.37 1.73.47 2.43.43 2.52-.36 4.49-1.79 5.32-3.96.86-2.29.26-4.96-1.53-6.62-2.16-1.77-4.53-2.2-7.05-.97-1.77.9-3 2.73-3.3 4.73V16H.03L0 7.78z" fill-rule="nonzero"/></symbol><symbol viewBox="0 0 16 16" id="icon-twitter"><title>twitter</title><path d="M16 3.038a6.62 6.62 0 0 1-1.885.517 3.299 3.299 0 0 0 1.443-1.816c-.634.37-1.337.64-2.085.79a3.282 3.282 0 0 0-5.593 2.99 9.307 9.307 0 0 1-6.766-3.42A3.222 3.222 0 0 0 .67 3.75c0 1.14.58 2.143 1.46 2.732a3.278 3.278 0 0 1-1.487-.41v.04c0 1.59 1.13 2.918 2.633 3.22a3.336 3.336 0 0 1-1.475.056 3.29 3.29 0 0 0 3.07 2.28 6.578 6.578 0 0 1-4.85 1.359 9.332 9.332 0 0 0 5.04 1.474c6.04 0 9.34-5 9.34-9.33 0-.14 0-.28-.01-.42a6.63 6.63 0 0 0 1.64-1.7z" fill-rule="nonzero"/></symbol><symbol viewBox="0 0 16 16" id="icon-wechat"><title>wechat</title><path d="M15.693 8.5c-.406-.92-1.172-1.65-2.06-2.1-1.57-.795-3.522-.79-5.086.02-1.088.558-1.995 1.558-2.253 2.775-.213.896-.022 1.86.453 2.64C7.454 13.01 8.732 13.76 10.06 14c.963.196 1.958.08 2.893-.19.56.218 1.06.57 1.605.83-.14-.47-.29-.937-.45-1.4.61-.434 1.163-.974 1.496-1.652a3.585 3.585 0 0 0 .09-3.087zM9.078 2.19c-1.663-.936-3.735-1.077-5.524-.43-1.175.423-2.24 1.21-2.897 2.28-.596.967-.82 2.172-.532 3.278.288 1.227 1.14 2.255 2.174 2.942-.2.566-.39 1.133-.57 1.703.65-.34 1.3-.695 1.95-1.04.78.25 1.61.372 2.44.345a4.11 4.11 0 0 1-.17-1.968c.15-.914.65-1.75 1.33-2.37 1.15-1.076 2.78-1.53 4.33-1.42-.29-1.423-1.29-2.626-2.55-3.32zm1.154 6.66c-.138.434-.77.565-1.076.234-.337-.306-.206-.946.236-1.082.49-.207 1.055.358.84.848zm3.197.06c-.17.392-.76.482-1.05.18-.14-.127-.18-.318-.23-.487.07-.305.28-.622.62-.636.47-.065.89.515.65.943zM8.66 4.608c.005.64-.85 1.04-1.33.606-.498-.357-.357-1.225.228-1.405.523-.21 1.142.23 1.1.79zm-4.04.162c-.114.557-.86.826-1.297.452-.506-.356-.364-1.24.23-1.42.582-.224 1.243.367 1.068.968z"/></symbol><symbol viewBox="0 0 16 16" id="icon-youtube"><title>youtube</title><path d="M0 7.345c0-1.294.16-2.59.16-2.59s.156-1.1.636-1.587c.608-.637 1.408-.617 1.764-.684C3.84 2.36 8 2.324 8 2.324s3.362.004 5.6.166c.314.038.996.04 1.604.678.48.486.636 1.588.636 1.588S16 6.05 16 7.346v1.258c0 1.296-.16 2.59-.16 2.59s-.156 1.102-.636 1.588c-.608.638-1.29.64-1.604.678-2.238.162-5.6.166-5.6.166s-4.16-.037-5.44-.16c-.356-.067-1.156-.047-1.764-.684-.48-.487-.636-1.587-.636-1.587S0 9.9 0 8.605v-1.26zm6.348 2.73V5.58l4.323 2.255-4.32 2.24z"/></symbol></svg>