<svg xmlns="http://www.w3.org/2000/svg" viewBox="0 0 152 150"><defs><style>.cls-1{fill:#2cccd3;fill-rule:evenodd}</style></defs><path id="icon" class="cls-1" d="M1251.95 2278.5a3.118 3.118 0 0 0 .05-.69 3.029 3.029 0 0 0-.05-.69 11.29 11.29 0 0 0-22.56.69 10.966 10.966 0 0 0 1.07 4.73q-12.36 16.005-24.71 32.02c-.29.36-.57.73-.85 1.09q-11.79-19.17-23.57-38.34c-.54-.88-1.09-1.77-1.63-2.65a11.737 11.737 0 0 0 6.7-9.65 3.118 3.118 0 0 0 .05-.69 3.029 3.029 0 0 0-.05-.69 11.295 11.295 0 1 0-15.89 10.97q-12.6 19.455-25.2 38.9c-.52.8-1.04 1.59-1.55 2.39q-10.14-14.595-20.27-29.2c-.79-1.14-1.59-2.29-2.39-3.43a12.149 12.149 0 0 0 1.47-4.76 3.118 3.118 0 0 0 .05-.69 3.029 3.029 0 0 0-.05-.69 11.3 11.3 0 1 0-11.57 12q4.68 34.23 9.38 68.47.675 4.995 1.37 10a2.874 2.874 0 0 0 2.77 2.12h97.26v27.52h-82.47c-3.71 0-3.72 5.77 0 5.77h85.35a2.929 2.929 0 0 0 2.89-2.88v-33.3a2.922 2.922 0 0 0-2.89-2.88h-97.65q-4.665-34.14-9.35-68.27-.54-3.93-1.08-7.88c.17-.09.32-.18.48-.28l21.06 30.33q1.62 2.34 3.24 4.67a2.915 2.915 0 0 0 4.97 0q13.68-21.105 27.35-42.21c.47-.72.93-1.44 1.4-2.15q11.67 18.99 23.35 37.98c1.23 2.01 2.47 4.02 3.7 6.02 1.24 2.02 3.68 1.69 4.98 0l24.93-32.31c.73-.94 1.45-1.88 2.18-2.82a10.506 10.506 0 0 0 1.58.95q-3.525 31.845-7.04 63.69-.51 4.665-1.03 9.32c-.4 3.69 5.36 3.66 5.77 0q3.615-32.835 7.25-65.68.345-3.09.69-6.2a11.47 11.47 0 0 0 10.51-10.6zm-146.19-.69c0-7.14 10.82-7.18 11.09 0-.27 7.17-11.09 7.14-11.09 0zm74.92-13.49c-.27 7.17-11.08 7.14-11.08 0s10.81-7.19 11.08 0zm54.47 13.49c0-7.14 10.81-7.18 11.09 0-.28 7.17-11.09 7.14-11.09 0zm-52.45 105a7.683 7.683 0 1 0 0 2.12 4.387 4.387 0 0 0 0-2.12zm-9.48 1.06c0-2.5 3.71-2.47 3.84 0-.13 2.47-3.84 2.49-3.84 0zm-19.34-1.06a7.718 7.718 0 1 0-.01 2.12 4.557 4.557 0 0 0 .01-2.12zm-9.48 1.06c0-2.5 3.71-2.47 3.84 0-.13 2.47-3.84 2.49-3.84 0zm67.12-1.06a7.683 7.683 0 1 0 0 2.12 4.387 4.387 0 0 0 0-2.12zm-9.48 1.06c0-2.5 3.71-2.47 3.85 0-.14 2.47-3.85 2.49-3.85 0z" transform="translate(-1100 -2253)"/></svg>