<svg xmlns="http://www.w3.org/2000/svg" viewBox="0 0 121 150"><defs><style>.cls-1{fill:#fff;fill-rule:evenodd}</style></defs><path id="icon" class="cls-1" d="M2149.6 1071.44v50.29c1.8-.75 3.59-1.49 5.38-2.24l-16.32-18.51a3.148 3.148 0 0 0-4.46 0q-7.455 9.255-14.93 18.51c1.8.75 3.59 1.49 5.38 2.24v-49.63a3.213 3.213 0 0 0-2.31-3.05c-6.69-1.36-14.79-.76-20.14 3.86-5.57 4.79-5.29 12.02-5.29 18.7V1148c0 5.29-.31 10.32 1.14 15.47 2.45 8.73 11.74 11.51 19.8 11.51h49.14c15.6 0 31.24.33 46.83 0 .27-.01.54 0 .81 0a3.206 3.206 0 0 0 3.15-3.17V1055.2a3.2 3.2 0 0 0-3.15-3.16h-92.28c-3.71 0-7.77.48-11.46-.08-6.43-.97-8.47-7.33-7.59-13.04.71-4.62 4.9-7.4 9.32-7.44 14.65-.13 29.31 0 43.96 0h29.32c5.56 0 11.28.41 16.83 0 .27-.02.55 0 .82 0-1.05-1.05-2.1-2.11-3.16-3.16v13.76q1.59-1.575 3.16-3.16h-74.2c-4.05 0-4.06 6.33 0 6.33h74.2a3.206 3.206 0 0 0 3.15-3.17v-13.76a3.213 3.213 0 0 0-3.15-3.17h-41.73c-16.22 0-32.44-.05-48.66 0a16.621 16.621 0 0 0-10.98 3.74c-4.96 4.16-6.18 11.26-4.96 17.39 1.42 7.15 7.96 11.92 15.02 12.09 1.16.03 2.33 0 3.49 0h81.6c5.43 0 11.11.48 16.52 0 .26-.02.52 0 .78 0-1.05-1.06-2.1-2.11-3.15-3.17v116.61q1.575-1.575 3.15-3.16h-91.27c-3.56 0-7.27.29-10.78-.46-3.39-.73-6.59-2.13-8.1-5.5a31.109 31.109 0 0 1-1.35-5.6c.3 1.27.07.34.08-.34.02-.96 0-1.92 0-2.88v-53.85c0-4.76-.1-9.54.01-14.31.1-4.46 1.92-8.24 6.23-9.86 3.21-1.21 6.55-1.18 10-.88.37.03.81.11.13.01a1.894 1.894 0 0 0 .56.08 1.409 1.409 0 0 1 .52.1l-2.31-3.06v49.63c0 2.53 3.59 4.45 5.38 2.23q7.47-9.255 14.93-18.51h-4.46q8.175 9.255 16.33 18.51c1.85 2.1 5.38.4 5.38-2.23v-50.29c0-4.07-6.31-4.07-6.31 0z" transform="translate(-2096.78 -1025.12)"/></svg>