<svg xmlns="http://www.w3.org/2000/svg" viewBox="0 0 157 150"><defs><style>.cls-1{fill:#e35205;fill-rule:evenodd}</style></defs><path id="icon" class="cls-1" d="M2351.17 3382.47a17.833 17.833 0 0 0-1.76-31.23c-12-5.59-27.05 4.02-25.4 17.68.68 5.62 4.87 9.91 6.85 15.08a119.363 119.363 0 0 1 4.41 14.96c1.16 4.83 2.18 9.71 3.1 14.6a65.354 65.354 0 0 0 1.27 7.27c.91 2.9 6.34 5.06 8.89 6.22a77.5 77.5 0 0 0 15 4.86 132.667 132.667 0 0 0 22.17 3.11c5.1.25 6.42-3.39 7.33-7.47a128.745 128.745 0 0 0 3-34.67c-.35-6.87-1.02-15.64-6.63-20.46a10.918 10.918 0 0 0-13.64-.22 10.549 10.549 0 0 0-2.51 12.8c2.1 4.04 7.79 7.17 12.3 5.74 3.68-1.16 5.77-4.78 6.99-8.2a15.323 15.323 0 0 0 .62-2.13c-.44.58-.88 1.15-1.33 1.73 10.44-6.67 18.25-16.85 24.04-27.67a59.461 59.461 0 0 0 4.09-8.7c1.35-4.03-1.39-6.4-4.44-8.22a143.711 143.711 0 0 0-14.75-7.74 124.26 124.26 0 0 0-18.02-6.24c-7.08-1.98-15.46-4.2-22.51-.95-4.59 2.12-6.92 7.08-6.5 12.04a9.42 9.42 0 0 0 7.7 8.49 10.538 10.538 0 0 0 10.21-3.06c3.53-3.51 3.43-8.5 1.55-12.81a19.876 19.876 0 0 0-1.96-3.52c-.08-.1-.16-.2-.23-.3 1.53 2.24-.44-.53-.48-.62.17.46.41.74.46.23.16-1.45-1.29-4.02-1.83-5.36a73.187 73.187 0 0 0-10.17-17.24 96.454 96.454 0 0 0-10.03-11.06c-2.56-2.41-5.44-5.52-9.33-3.96-2.88 1.16-5.51 4.33-7.7 6.39a127.887 127.887 0 0 0-13.5 14.71 104.573 104.573 0 0 0-7.43 11.09c-2.45 4.17-4.53 8.91-4.76 13.8-.28 5.7 3.43 11.7 9.41 12.53 3.98.56 8.59-2.15 10.43-5.73 1.13-2.21-.01-5.86-1.09-7.94a9.609 9.609 0 0 0-4.82-4.44c-3.21-1.36-6.96-1.12-10.27-.2-1.57.44-2.92.09-4.68.14a62.686 62.686 0 0 0-11.34 1.41 87.832 87.832 0 0 0-19.32 6.79 58.8 58.8 0 0 0-8.72 4.74c-4.1 2.89-2.34 6.86-.78 10.46a118.686 118.686 0 0 0 17.63 29.19c5 5.95 12.62 15.36 21.57 12.37a10.553 10.553 0 0 0 6.55-14.03c-1.61-3.72-5.69-6.94-9.91-5.84a11.831 11.831 0 0 0-8 7.25c-1.16 3.05-.33 6.26-1.35 9.25a55.886 55.886 0 0 0-2.47 10.92 82.8 82.8 0 0 0-.05 20.45 69.674 69.674 0 0 0 2 11.66c1.16 3.98 4.46 4.71 8.03 4.4a152.179 152.179 0 0 0 15.47-2.14 92.173 92.173 0 0 0 19.98-5.99c3.39-1.49.46-6.47-2.91-4.98a91.966 91.966 0 0 1-21.87 5.99c-2.8.47-5.61.84-8.43 1.14-1.05.11-3.36.76-4.37.37-1.14-.43-1.56-6.35-1.76-7.68a83.023 83.023 0 0 1-.6-20.95 53.269 53.269 0 0 1 2.67-12.03 9.318 9.318 0 0 0 .8-2.6c.03-.9-.23-1.86-.22-2.78a8.544 8.544 0 0 1 .73-3.63 6.217 6.217 0 0 1 1.45-1.87 8.219 8.219 0 0 1 1.08-.69 1.645 1.645 0 0 1 .55-.27 6.936 6.936 0 0 1 1.35-.38.693.693 0 1 1-.13.02c-.81-.11.15.13.21.17.24.19.63.29.89.48 4.56 3.21.38 9.56-4.45 8.25-4.43-1.19-8.09-5.26-10.93-8.66l-.66-.81a1.672 1.672 0 0 1-.19-.25c-.45-.59-.92-1.16-1.41-1.72a72.921 72.921 0 0 1-6.73-9.26 136.975 136.975 0 0 1-9.05-17.16 14.761 14.761 0 0 1-1.46-3.44c-.07-.4-.25-.12-.12-.36a4.787 4.787 0 0 1 1.38-.83 88.915 88.915 0 0 1 15.07-7.09 77.1 77.1 0 0 1 11.54-3.2 53.037 53.037 0 0 1 5.89-.78c2.26-.16 4.56.13 6.8-.03a25.473 25.473 0 0 0 2.96-.71 10.778 10.778 0 0 1 4.17-.14 4.323 4.323 0 0 1 3.49 3.03 11.928 11.928 0 0 0 .41 1.96c.44.66.13-.65.33-.32.07.13-.21.28-.26.35a11.434 11.434 0 0 1-1.13 1.18c-2.09 1.8-4.28 1.53-6.14-.59-1.51-1.72-1.67-4.05-1.32-6.23.7-4.4 2.99-8.4 5.38-12.08a110.422 110.422 0 0 1 11.83-15.5 140.017 140.017 0 0 1 11.8-11.31c.3-.25.59-.52.9-.75-.53.39-.5-.31-.04.36.75 1.1 2.31 2.05 3.28 2.98a88.7 88.7 0 0 1 11.26 12.91 70.3 70.3 0 0 1 5.45 8.99c1.71 3.41 2.69 6.98 3.99 10.54.39 1.06.41.58.14.18.12.18.26.35.37.53.4.62.79 1.24 1.13 1.89a8.256 8.256 0 0 1 1.14 4.76 6.02 6.02 0 0 1-3.69 4.06 4.688 4.688 0 0 1-2.99-.39 3.4 3.4 0 0 1-2.57-2.7 6.786 6.786 0 0 1 1.9-6.04c3.08-2.56 8.37-1.97 12.02-1.38a78.223 78.223 0 0 1 7.99 1.96 115.178 115.178 0 0 1 22.09 8.31q3.93 2.01 7.76 4.23c.57.34 3.21 1.41 3.45 2.09-.02-.03-.78 1.44-.74 1.36-.78 1.73-1.59 3.45-2.47 5.14a85.112 85.112 0 0 1-9.53 14.83 64.022 64.022 0 0 1-7.37 7.72 44.633 44.633 0 0 1-3.98 3.14c-1.25.86-2.51 1.44-3.06 2.94-.83 2.26-1.29 5.45-3.77 6.32-1.37.47-4.12-1.1-5.14-2.44a4.866 4.866 0 0 1-.33-4.85 4.792 4.792 0 0 1 5.51-2.17c1.79.48 2.89 2.04 3.72 3.61 1.83 3.46 2.39 7.7 2.61 11.56a125.432 125.432 0 0 1-2.68 34.83c-.14.63-.3 3.11-.84 3.56-.44.37-4.58-.44-5.44-.53q-3.315-.315-6.62-.78a99.427 99.427 0 0 1-19.86-4.68 40.531 40.531 0 0 1-10.85-5.76l1.33 1.72a232.876 232.876 0 0 0-6.89-31.25 71.272 71.272 0 0 0-3.34-9.06c-1.65-3.6-4.86-6.86-5.29-10.9-.91-8.43 7.99-14.75 15.72-12.3 9.66 3.05 11.11 16.14 2.84 21.64-3.08 2.05-.19 7.05 2.91 4.99z" transform="translate(-2263.31 -3285.03)"/></svg>