<?xml version="1.0" standalone="no"?>
<!DOCTYPE svg PUBLIC "-//W3C//DTD SVG 20010904//EN"
 "http://www.w3.org/TR/2001/REC-SVG-20010904/DTD/svg10.dtd">
<svg version="1.0" xmlns="http://www.w3.org/2000/svg"
 width="90.000000pt" height="90.000000pt" viewBox="0 0 90.000000 90.000000"
 preserveAspectRatio="xMidYMid meet">
<metadata>
Created by potrace 1.11, written by Peter Selinger 2001-2013
</metadata>
<g transform="translate(0.000000,90.000000) scale(0.100000,-0.100000)"
fill="#000000" stroke="none">
<path d="M160 887 c-51 -16 -123 -93 -143 -152 -15 -42 -17 -98 -17 -392 l0
-343 343 0 c212 0 357 4 381 11 52 14 119 78 147 142 24 51 24 59 27 400 l3
347 -353 -1 c-228 -1 -365 -5 -388 -12z m718 -339 c-4 -369 -7 -390 -71 -457
-66 -69 -73 -71 -450 -71 l-338 0 3 348 c3 334 4 349 25 387 11 22 35 53 51
68 56 53 77 56 445 57 l338 0 -3 -332z"/>
<path d="M267 726 c-99 -27 -117 -66 -117 -251 l0 -135 55 0 55 0 0 80 0 80
154 0 c174 0 206 -7 206 -45 0 -34 -31 -45 -126 -45 l-74 0 0 -35 0 -35 81 0
c90 0 119 -10 119 -43 0 -41 -17 -47 -132 -47 l-108 0 0 -41 0 -41 138 4 c110
2 142 7 163 21 53 35 64 107 25 154 l-24 28 24 28 c13 16 24 40 24 54 0 38
-28 89 -56 102 -15 6 -110 14 -224 18 l-198 6 9 25 c17 45 36 51 152 52 l107
0 0 40 0 40 -102 -1 c-57 0 -124 -6 -151 -13z"/>
</g>
</svg>
