<svg xmlns="http://www.w3.org/2000/svg" viewBox="0 0 158.75 158.75"><path d="M78.562-.077L7.996 42.676v19.297l44.672 41.801 10.921-11.671-32.198-30.13h94.25l-32.198 30.13 10.921 11.671 44.672-41.8h.092V42.675h-.001z" fill="#373737" stroke-width=".067" stroke-dasharray=".06724758,.26899032"/><path fill="#373737" stroke-width=".554" stroke-linecap="round" stroke-linejoin="round" paint-order="stroke fill markers" d="M29.865 45.323h98.702v30.24H29.865z"/><path fill="#c57451" fill-rule="evenodd" stroke-width="2.155" stroke-linecap="round" stroke-linejoin="round" paint-order="stroke fill markers" d="M76.043 47.672h4.838v5.243h-4.838z"/><path fill="#909090" fill-rule="evenodd" stroke-width="2.311" stroke-linecap="round" stroke-linejoin="round" paint-order="stroke fill markers" d="M63.248 14.132h5.19v5.62h-5.19z"/><path d="M76.584 82.495l-37.03 39.774h21.838l26.89-28.883z" fill="#373737" stroke-width=".317" stroke-linecap="round" stroke-linejoin="round" paint-order="stroke fill markers"/><path d="M81.983 82.49L70.285 93.383l26.893 28.887h21.84z" fill="#373737" stroke-width=".317" stroke-linecap="round" stroke-linejoin="round" paint-order="stroke fill markers"/><path d="M78.562 1.988L45.956 21.743h65.212z" fill="#a7a7a7" stroke-width="1.03" stroke-linecap="round" stroke-linejoin="round" paint-order="stroke fill markers"/><path d="M78.562 1.78L13.003 41.5c.14.33.246.685.291 1.05.783-.211 1.562-.43 2.339-.66l62.93-38.126 65.343 39.59h.001v.102c.327-.443.796-1.07 1.08-1.43zM10.52 60.866v.271l.09-.138c-.03-.047-.06-.088-.09-.133zm100.468.346h-.045c.013.046.026.078.041.134h.033l-.029-.138zm-68.523 0h.136zm1.897 0c.294.02.588.03.882 0zm38.832.376c-.047 0-.1 0-.153.019h.224c-.024 0-.046-.02-.07-.02zm-42.01 27.555c.052.046.108.101.163.154.021-.047.044-.092.063-.139-.082 0-.15-.02-.227-.02zm70.579 4.765c-.047.062-.092.125-.14.187.096-.025.165-.047.23-.062-.032-.041-.06-.084-.09-.125zm.01.205l-.258.123c-.11.14-.22.284-.328.427zm-1.683 1.575l-.372.17c.022.04.04.082.057.123zm-57.975 1.929c-.119.074-.239.146-.357.22.164-.019.363-.025.55-.04zm55.427.455a1.36 1.36 0 0 1-.11.05c-.005.022-.009.047-.015.067z" fill="#a7a7a7" stroke-width=".065" stroke-dasharray=".06484244,.25936974"/><path d="M1.56 128.286v30.387h30.388v-30.387zm15.18 8.73c.585 0 1.18.053 1.787.158.607.106 1.227.265 1.861.476v1.644a10.387 10.387 0 0 0-1.811-.683 6.416 6.416 0 0 0-1.644-.226c-.918 0-1.628.178-2.128.535-.496.356-.742.863-.742 1.52 0 .55.163.967.491 1.25.334.278.963.504 1.886.677l1.019.207c1.257.239 2.184.662 2.78 1.268.6.601.9 1.408.9 2.42 0 1.208-.406 2.123-1.218 2.746-.807.624-1.992.936-3.556.936-.59 0-1.218-.066-1.886-.2-.662-.133-1.35-.33-2.062-.592v-1.737a9.868 9.868 0 0 0 2.012.869 6.766 6.766 0 0 0 1.936.292c.963 0 1.705-.19 2.229-.567.523-.379.784-.918.784-1.62 0-.611-.189-1.09-.567-1.436-.373-.345-.988-.603-1.845-.776l-1.025-.2c-1.258-.25-2.169-.643-2.73-1.177-.563-.535-.843-1.277-.843-2.228 0-1.102.387-1.97 1.16-2.605.78-.634 1.85-.95 3.213-.95z" fill="#6f7451" stroke-width="2.429" stroke-linecap="round" stroke-linejoin="round" paint-order="stroke fill markers"/><g style="line-height:1.25" font-weight="400" font-size="74.667" font-family="sans-serif" letter-spacing="0" word-spacing="0" fill="#fff"><path d="M21.834 134.219v2.676q-1.563-.747-2.949-1.114-1.386-.367-2.677-.367-2.242 0-3.464.87-1.21.87-1.21 2.473 0 1.345.802 2.038.815.68 3.07 1.1l1.658.34q3.071.585 4.525 2.066 1.467 1.467 1.467 3.94 0 2.948-1.983 4.47-1.97 1.522-5.789 1.522-1.44 0-3.07-.326-1.617-.326-3.356-.965v-2.826q1.67.937 3.274 1.413 1.603.476 3.152.476 2.351 0 3.628-.924 1.277-.924 1.277-2.636 0-1.495-.923-2.337-.91-.843-3.003-1.264l-1.672-.326q-3.07-.611-4.443-1.916-1.372-1.304-1.372-3.628 0-2.69 1.889-4.239 1.902-1.549 5.23-1.549 1.428 0 2.909.258 1.48.258 3.03.775zM27.336 133.553h2.745v8.315h9.973v-8.315H42.8v20.286h-2.745v-9.66h-9.973v9.66h-2.745zM48.26 133.553h12.827v2.31H51.005v6.005h9.661v2.31h-9.66v7.351h10.326v2.31H48.26zM75.49 144.328q.883.299 1.712 1.277.842.978 1.685 2.69l2.785 5.544h-2.948l-2.596-5.204q-1.005-2.038-1.956-2.704-.938-.666-2.568-.666h-2.99v8.574H65.87v-20.286h6.196q3.478 0 5.19 1.454 1.712 1.454 1.712 4.389 0 1.915-.897 3.179-.883 1.264-2.581 1.753zm-6.875-8.52v7.202h3.45q1.985 0 2.99-.91 1.02-.925 1.02-2.704 0-1.78-1.02-2.677-1.005-.91-2.99-.91zM85.218 133.553h2.745v17.976h9.878v2.31H85.218zM107.963 135.414q-2.989 0-4.755 2.229-1.753 2.228-1.753 6.073 0 3.832 1.753 6.06 1.766 2.229 4.755 2.229 2.99 0 4.729-2.229 1.753-2.228 1.753-6.06 0-3.845-1.753-6.073-1.74-2.229-4.729-2.229zm0-2.228q4.267 0 6.821 2.867 2.555 2.853 2.555 7.663 0 4.797-2.555 7.664-2.554 2.853-6.82 2.853-4.28 0-6.849-2.853-2.554-2.854-2.554-7.664t2.554-7.663q2.568-2.867 6.848-2.867zM136.823 135.116v2.894q-1.386-1.291-2.962-1.93-1.563-.638-3.329-.638-3.478 0-5.326 2.133-1.848 2.12-1.848 6.141 0 4.009 1.848 6.142 1.848 2.12 5.326 2.12 1.766 0 3.329-.64 1.576-.638 2.962-1.929v2.867q-1.44.979-3.057 1.468-1.604.489-3.397.489-4.606 0-7.256-2.813-2.65-2.826-2.65-7.704 0-4.891 2.65-7.704 2.65-2.826 7.256-2.826 1.82 0 3.424.49 1.617.475 3.03 1.44zM141.09 133.553h2.744v8.574l9.103-8.574h3.533l-10.068 9.457 10.788 10.829h-3.614l-9.742-9.77v9.77h-2.745z"/></g><path fill="#c57451" fill-rule="evenodd" stroke-width="2.311" stroke-linecap="round" stroke-linejoin="round" paint-order="stroke fill markers" d="M61.642 55.512h5.19v5.62h-5.19z"/><path fill="#909090" fill-rule="evenodd" stroke-width="2.311" stroke-linecap="round" stroke-linejoin="round" paint-order="stroke fill markers" d="M84.28 35.357h5.19v5.621h-5.19zM76.513 25.715h5.19v5.621h-5.19zM67.423 39.946h5.19v5.621h-5.19z"/><path fill="#c57451" fill-rule="evenodd" stroke-width="2.311" stroke-linecap="round" stroke-linejoin="round" paint-order="stroke fill markers" d="M87.066 50.697h5.19v5.62h-5.19z"/><path fill="#c54751" fill-rule="evenodd" stroke-width="2.548" stroke-linecap="round" stroke-linejoin="round" paint-order="stroke fill markers" d="M76.87 62.756h5.723v6.2H76.87z"/><path fill="#c54751" fill-rule="evenodd" stroke-width="1.827" stroke-linecap="round" stroke-linejoin="round" paint-order="stroke fill markers" d="M54.36 71.838h4.84v3.768h-4.84z"/><path fill="#c54751" fill-rule="evenodd" stroke-width="2.548" stroke-linecap="round" stroke-linejoin="round" paint-order="stroke fill markers" d="M94.21 67.503h5.722v6.2h-5.723z"/></svg>