<?xml version="1.0" encoding="utf-8"?>
<!-- Generator: Adobe Illustrator 18.1.1, SVG Export Plug-In . SVG Version: 6.00 Build 0)  -->
<!DOCTYPE svg PUBLIC "-//W3C//DTD SVG 1.1//EN" "http://www.w3.org/Graphics/SVG/1.1/DTD/svg11.dtd">
<svg version="1.1" id="Ebene_1" xmlns="http://www.w3.org/2000/svg" xmlns:xlink="http://www.w3.org/1999/xlink" x="0px" y="0px"
	 width="140px" height="42px" viewBox="0 0 140 42" enable-background="new 0 0 140 42" xml:space="preserve">
<path fill="#EA5B0C" d="M68,4.5c-4.2-2.9-9.8-4.1-15-4.1c-9.8,0-21.3,4.2-21.3,16.1c0,1.6,0.2,3,0.5,4.3c-2.1,2.3-5.5,4.7-9.8,4.7
	c-5.6,0-9.6-3.6-9.6-9.1c0-5.1,3.9-8.9,9.1-8.9c2.6,0,4.5,0.9,5.6,1.6l4.1-6.5C29.5,1.5,25.4,0,20.1,0C10,0,0,5.4,0,16.4
	c0,10.9,9,16.5,19.8,16.5c6.8,0,12.3-3.4,15.4-6.8c4,4.4,10.8,6.4,17.7,6.4c5.1,0,10.8-1.1,15-4.1V4.5z M52.9,25.5
	c-4.9,0-8.9-4-8.9-8.9s4-8.9,8.9-8.9c4.9,0,8.9,4,8.9,8.9S57.8,25.5,52.9,25.5z"/>
<path fill="#F59C00" d="M121.4,1.1c-0.8,0-1.6,0.1-2.4,0.1c-3.7,0.4-6.5,1.7-8.8,3.3V1.6h-9.9v4.7c-4.2-4.2-11.5-5.9-17.3-5.9h0
	c-5.2,0-10.9,1.2-15.1,4.1v23.9c4.2,2.9,9.8,4.1,15.1,4.1h0c6.6,0,12.9-2.1,17.1-5.7v14.9h10.1V28.6c1.6,1.5,4.6,3.3,8.8,3.8
	c0.9,0.1,1.7,0.2,2.7,0.2c7.9,0,18.3-4.8,18.3-16C140,6.2,131.6,1.1,121.4,1.1z M83.1,25.4c-4.9,0-8.9-4-8.9-8.9
	c0-4.9,4-8.9,8.9-8.9c4.9,0,8.9,4,8.9,8.9C92,21.4,88,25.4,83.1,25.4z M119.2,26c0,0-0.1,0-0.1,0c-5-0.1-9-3.9-9-9.5
	c0-5.3,4.2-9.2,9-9.3c0,0,0.1,0,0.1,0c5.1,0,9,4.1,9,9.2C128.1,21.4,124.4,26,119.2,26z"/>
<path fill="#C9450A" d="M68,28.5c-3.6-2.5-6.2-6.4-6.2-12c0-5.5,2.5-9.4,6.2-12c3.7,2.6,6.2,6.4,6.2,12C74.2,22.1,71.7,25.9,68,28.5
	z"/>
</svg>
