<svg xmlns="http://www.w3.org/2000/svg" viewBox="0 0 37 40.03"><path class="cls-1" d="M34.849 36.74H30.54a.955.955 0 0 1 0-1.91h4.309a.246.246 0 0 0 .244-.24V2.19a.246.246 0 0 0-.244-.24H8.683a1.471 1.471 0 0 1-.115.39v32.25a.245.245 0 0 0 .244.24h16.715a.955.955 0 0 1 0 1.91H8.812a2.157 2.157 0 0 1-2.151-2.15V2.25a9.7 9.7 0 0 0-2.09-.33.973.973 0 0 1-.915-1A.989.989 0 0 1 4.667.01c.142.01.854.03 2.548.03h27.634A2.157 2.157 0 0 1 37 2.19v32.4a2.157 2.157 0 0 1-2.151 2.15zM7.637 5.26H.953A.957.957 0 0 1 0 4.3a4.3 4.3 0 0 1 8.591 0 .957.957 0 0 1-.954.96zM2.105 3.35h4.381a2.393 2.393 0 0 0-4.381 0zm25.761 30.1a4.74 4.74 0 1 1 4.744-4.74 4.75 4.75 0 0 1-4.744 4.74zm0-7.58a2.835 2.835 0 1 0 2.838 2.84 2.84 2.84 0 0 0-2.838-2.84zm2.492 14.15a.964.964 0 0 1-.623-.23l-1.621-1.4-1.62 1.4a.957.957 0 0 1-1.577-.72v-7.18a.954.954 0 0 1 1.907 0v5.1l.618-.54a.952.952 0 0 1 .623-.23h.1a.948.948 0 0 1 .623.23l.619.54v-5.1a.953.953 0 0 1 1.906 0v7.18a.941.941 0 0 1-.556.86.927.927 0 0 1-.399.09zM27.033 7.98H16.9a.95.95 0 1 1 0-1.9h10.135a.95.95 0 1 1-.002 1.9zm3.468 4.48h-17.07a.95.95 0 1 1 0-1.9H30.5a.95.95 0 1 1 0 1.9zm-1.174 4.27H14.6a.955.955 0 0 1 0-1.91h14.723a.955.955 0 0 1 .004 1.91zm1.174 4.26h-17.07a.955.955 0 0 1 0-1.91H30.5a.955.955 0 0 1 0 1.91z"/></svg>