<svg xmlns="http://www.w3.org/2000/svg" viewBox="0 0 41 40"><path class="cls-1" d="M7.289 34.71a.948.948 0 0 1-.817-.48L.644 23.95a4.411 4.411 0 0 1-.646-2.14 5.1 5.1 0 0 1 .926-2.59l1.364-2.15-.947-.58a1.439 1.439 0 0 1 .651-2.74l8.593-.22a.925.925 0 0 1 .854.51l3.868 7.35a2.538 2.538 0 0 1 .319 1.11 1.3 1.3 0 0 1-1.386 1.32.945.945 0 0 1-.491-.14l-.962-.6-3.947 6.27a4.727 4.727 0 0 0-.819 2.56 8.061 8.061 0 0 0 .188 1.65.959.959 0 0 1-.582 1.09 1 1 0 0 1-.338.06zm-3.741-19.1l.542.33a.974.974 0 0 1 .431.6.952.952 0 0 1-.125.73l-1.882 2.96a3.382 3.382 0 0 0-.634 1.58 2.545 2.545 0 0 0 .4 1.19l4.1 7.23a7.277 7.277 0 0 1 .881-1.91l4.439-7.05a.939.939 0 0 1 1.246-.32l-2.892-5.5zm11.189 1.12a.9.9 0 0 1-.524-.16l-7.919-5.36a.964.964 0 0 1-.274-1.3l4.548-7.35a3.513 3.513 0 0 1 3.254-1.48c2.452 0 4.606 2.22 6.585 6.79a.943.943 0 0 1-.071.89l-4.808 7.54a1 1 0 0 1-.6.42 1.21 1.21 0 0 1-.191.01zm-6.636-6.59l6.364 4.31 4.012-6.28c-1.539-3.39-3.143-5.18-4.655-5.18a1.822 1.822 0 0 0-1.654.58zm11.993 27h-9.277c-1.249 0-3.345-.61-3.345-4.73a6.962 6.962 0 0 1 .782-3.18 33.019 33.019 0 0 1 2.132-3.34.928.928 0 0 1 .771-.41h8.937a.948.948 0 0 1 .941.95v9.76a.948.948 0 0 1-.941.95zm-8.446-9.75a25.8 25.8 0 0 0-1.713 2.7 5.094 5.094 0 0 0-.58 2.32c0 2.83 1.025 2.83 1.462 2.83h8.335v-7.85h-7.5zM29.92 14.94a.194.194 0 0 1-.075-.01l-8.494-.68a1.389 1.389 0 0 1-1.363-1.4 1.354 1.354 0 0 1 .792-1.29l.724-.35-1.738-3.69a13.407 13.407 0 0 0-3.106-4.63 7.51 7.51 0 0 0-2.356-1.03A.952.952 0 0 1 14.58 0h10.74c2.674 0 4.5.96 5.442 2.85l1.315 2.64L33.134 5l.094-.03a2.382 2.382 0 0 0 .266-.1 1.236 1.236 0 0 1 1.7 1.32 2.525 2.525 0 0 1-.333 1.24l-4.137 7.04a.943.943 0 0 1-.804.47zm-8.332-1.66l-.019.01a.019.019 0 0 1 .019-.01zm1.635-.79l6.187.5 3.358-5.72-.731.34a.938.938 0 0 1-1.233-.44l-1.725-3.46c-.6-1.22-1.83-1.81-3.759-1.81H18.4a17.446 17.446 0 0 1 3.07 4.8l2.144 4.55a.967.967 0 0 1 .038.73 1 1 0 0 1-.429.51zM26.963 40a1.87 1.87 0 0 1-1.516-1.07l-4.391-6.82a.971.971 0 0 1-.027-1l4.233-7.42a1.4 1.4 0 0 1 1.233-.69c.223 0 1.334.08 1.334 1.77v.45h5.748a10.838 10.838 0 0 0 3.283-.38 5.746 5.746 0 0 0 2.491-1.78.927.927 0 0 1 1.248-.15.948.948 0 0 1 .284 1.23l-6.009 11.05a3.9 3.9 0 0 1-3.7 2.06h-2.769v1.37a1.352 1.352 0 0 1-1 1.3 1.408 1.408 0 0 1-.442.08zm-4.014-8.44l3.573 5.55v-.82a.948.948 0 0 1 .941-.95h3.711a2.03 2.03 0 0 0 2.047-1.06l4.129-7.59a13.029 13.029 0 0 1-3.775.43h-6.689a.941.941 0 0 1-.935-.83zm12.485-5.84h-4a.931.931 0 0 1-.806-.46l-4.757-7.95a.97.97 0 0 1-.106-.73.953.953 0 0 1 .439-.59l8.181-4.81a.932.932 0 0 1 1.26.3l4.756 7.35a3.337 3.337 0 0 1 .6 1.87 4.582 4.582 0 0 1-2 3.55 5.687 5.687 0 0 1-3.567 1.47zm-3.468-1.9h3.468a3.907 3.907 0 0 0 2.385-1.06 2.807 2.807 0 0 0 1.3-2.06 1.5 1.5 0 0 0-.283-.82l-4.275-6.6-6.581 3.87z"/></svg>