<svg xmlns="http://www.w3.org/2000/svg" viewBox="0 0 40 39.97"><path class="cls-1" d="M21.488 6.77a.894.894 0 0 1-.557-.19l-1.018-.74-1.018.74a.918.918 0 0 1-1.112 0 .948.948 0 0 1-.344-1.06l.389-1.2-1.018-.75a.952.952 0 0 1 .556-1.72h1.258l.389-1.2a.944.944 0 0 1 1.8 0l.388 1.2h1.259a.952.952 0 0 1 .556 1.72l-1.018.75.389 1.2a.949.949 0 0 1-.344 1.06.894.894 0 0 1-.555.19zm-1.575-3.06h.057l.035-.11-.092-.06-.091.06.035.11h.056zm-9.774 5.72a.946.946 0 0 1-.9-1.24l.389-1.21-1.018-.74a.966.966 0 0 1-.344-1.07.944.944 0 0 1 .9-.65h1.258l.389-1.21a.944.944 0 0 1 1.8 0l.389 1.21h1.258a.943.943 0 0 1 .9.65.964.964 0 0 1-.344 1.07l-1.018.74.389 1.21a.947.947 0 0 1-1.456 1.06l-1.019-.74-1.018.74a.948.948 0 0 1-.55.18zm1.482-3.16c.014.04.025.07.035.11h.114a.753.753 0 0 1 .035-.11.521.521 0 0 1-.092-.07.457.457 0 0 1-.092.07zm23.813 8.76a.948.948 0 0 1-.556-.18l-1.018-.74-1.018.74a.947.947 0 0 1-1.457-1.06l.389-1.21-1.019-.74a.959.959 0 0 1-.343-1.07.943.943 0 0 1 .9-.65h1.259l.389-1.21a.944.944 0 0 1 1.8 0l.389 1.21h1.258a.944.944 0 0 1 .9.65.961.961 0 0 1-.344 1.07l-1.018.74.389 1.21a.946.946 0 0 1-.9 1.24zm-1.574-3.05h.057a.933.933 0 0 1 .035-.11.457.457 0 0 1-.092-.07.487.487 0 0 1-.092.07c.014.04.025.07.035.11h.057zm-4.148-2.64a.949.949 0 0 1-.557-.18l-1.018-.74-1.018.74a.946.946 0 0 1-1.456-1.06l.388-1.21-1.018-.74a.959.959 0 0 1-.343-1.07.942.942 0 0 1 .9-.65h1.254l.389-1.21a.944.944 0 0 1 1.8 0l.389 1.21h1.259a.941.941 0 0 1 .9.65.959.959 0 0 1-.343 1.07l-1.019.74.389 1.21a.946.946 0 0 1-.896 1.24zm-1.575-3.05h.057c.01-.04.021-.07.035-.11a.487.487 0 0 1-.092-.07.457.457 0 0 1-.092.07c.014.04.026.07.036.11h.056zm-20.506 8.9a.949.949 0 0 1-.557-.18l-1.018-.75-1.018.75a.95.95 0 0 1-1.113 0 .971.971 0 0 1-.344-1.07l.389-1.2-1.018-.75a.952.952 0 0 1 .557-1.72h1.258l.389-1.2a.944.944 0 0 1 1.8 0l.389 1.2h1.259a.952.952 0 0 1 .557 1.72l-1.019.75.389 1.2a.969.969 0 0 1-.344 1.07.948.948 0 0 1-.556.18zm-1.575-3.06a.115.115 0 0 1 .057.01.648.648 0 0 1 .035-.11c-.031-.02-.062-.05-.092-.07-.029.02-.06.05-.092.07a.57.57 0 0 1 .035.11.115.115 0 0 1 .057-.01zm32.028 11.15a.951.951 0 0 1-.557-.18l-1.017-.74-1.018.74a.949.949 0 0 1-1.457-1.07l.389-1.2-1.019-.74a.971.971 0 0 1-.344-1.07.953.953 0 0 1 .9-.66h1.258l.389-1.2a.944.944 0 0 1 1.8 0l.389 1.2h1.258a.952.952 0 0 1 .9.66.968.968 0 0 1-.344 1.07l-1.018.74.389 1.2a.958.958 0 0 1-.344 1.07.946.946 0 0 1-.554.18zm-1.574-3.05h.056a.753.753 0 0 1 .035-.11.452.452 0 0 1-.091-.07.487.487 0 0 1-.092.07.753.753 0 0 1 .035.11h.057zm-4.136 11.32a.946.946 0 0 1-.9-1.24l.389-1.21-1.018-.74a.959.959 0 0 1-.344-1.07.943.943 0 0 1 .9-.65h1.259l.389-1.21a.944.944 0 0 1 1.8 0l.388 1.21h1.259a.944.944 0 0 1 .9.65.959.959 0 0 1-.344 1.07l-1.018.74.389 1.21a.947.947 0 0 1-1.457 1.06l-1.018-.74-1.018.74a.949.949 0 0 1-.556.18zm1.483-3.16c.013.04.025.07.035.11h.114c.01-.04.021-.07.035-.11a.487.487 0 0 1-.092-.07.457.457 0 0 1-.092.07zm-3.991 8.92a.948.948 0 0 1-.556-.18l-1.018-.75-1.018.75a.949.949 0 0 1-1.457-1.07l.389-1.2-1.018-.75a.952.952 0 0 1 .557-1.72h1.258l.389-1.2a.944.944 0 0 1 1.8 0l.389 1.2h1.263a.952.952 0 0 1 .9.66.969.969 0 0 1-.344 1.07l-1.018.74.389 1.2a.961.961 0 0 1-.344 1.07.949.949 0 0 1-.561.18zM28.2 34.15a.648.648 0 0 1 .035.11.22.22 0 0 1 .114 0 .57.57 0 0 1 .035-.11c-.032-.02-.063-.05-.092-.07-.03.02-.06.05-.092.07zM5.07 23.46a.948.948 0 0 1-.556-.18l-1.018-.75-1.018.75a.949.949 0 0 1-1.457-1.07l.389-1.2-1.018-.74a.971.971 0 0 1-.344-1.07.953.953 0 0 1 .9-.66h1.259l.389-1.2a.944.944 0 0 1 1.8 0l.389 1.2h1.259a.953.953 0 0 1 .9.66.971.971 0 0 1-.344 1.07l-1.018.74.389 1.2a.961.961 0 0 1-.344 1.07.949.949 0 0 1-.557.18zm-1.574-3.05h.056a.645.645 0 0 1 .036-.11.457.457 0 0 1-.092-.07.487.487 0 0 1-.092.07.648.648 0 0 1 .035.11h.057zm4.224 11.3a.951.951 0 0 1-.557-.18l-1.017-.75-1.018.75a.95.95 0 0 1-1.113 0 .964.964 0 0 1-.344-1.07l.389-1.2-1.018-.75a.952.952 0 0 1 .556-1.72h1.258l.389-1.2a.944.944 0 0 1 1.8 0l.389 1.2h1.259a.952.952 0 0 1 .556 1.72l-1.019.75.389 1.2a.963.963 0 0 1-.344 1.07.946.946 0 0 1-.555.18zm-1.574-3.06a.11.11 0 0 1 .056.01.753.753 0 0 1 .035-.11c-.032-.02-.062-.05-.091-.07-.03.02-.06.05-.092.07a.753.753 0 0 1 .035.11.111.111 0 0 1 .055-.01zm4.147 8.75a.948.948 0 0 1-.556-.18.959.959 0 0 1-.344-1.07l.389-1.2-1.018-.75a.952.952 0 0 1 .556-1.72h1.259l.389-1.2a.944.944 0 0 1 1.8 0l.389 1.2h1.259a.952.952 0 0 1 .556 1.72l-1.018.75.389 1.2a.949.949 0 0 1-1.457 1.07l-1.018-.75-1.018.75a.951.951 0 0 1-.557.18zm1.483-3.16a.753.753 0 0 1 .035.11.22.22 0 0 1 .114 0 .648.648 0 0 1 .035-.11c-.031-.02-.062-.05-.092-.07-.024.02-.06.05-.092.07zm9.89 5.74a.959.959 0 0 1-.556-.19l-1.018-.74-1.018.74a.92.92 0 0 1-1.113 0 .951.951 0 0 1-.344-1.06l.389-1.21-1.018-.74a.952.952 0 0 1 .556-1.72h1.259l.389-1.21a.948.948 0 0 1 1.8 0l.389 1.21h1.263a.941.941 0 0 1 .9.66.951.951 0 0 1-.344 1.06l-1.018.74.389 1.21a.962.962 0 0 1-.905 1.25zM20 36.81c.014.04.025.07.035.11h.114c.01-.04.021-.07.035-.11l-.092-.06z"/></svg>