<svg xmlns="http://www.w3.org/2000/svg" viewBox="0 0 69 80"><defs><style>.cls-1{fill:#fff;fill-rule:evenodd}</style></defs><path id="icon" class="cls-1" d="M533.348 6654.17h-65.2a1.906 1.906 0 0 1-1.512-3.06l14.14-18.6H473.3a1.9 1.9 0 0 1-1.563-2.98l27.4-39.71a1.909 1.909 0 0 1 1.563-.82 2.124 2.124 0 0 1 1.678.82l27.4 39.71a1.9 1.9 0 0 1-1.563 2.98h-7.495l14.141 18.6a1.907 1.907 0 0 1-1.513 3.06zm-61.361-3.81h57.524l-14.141-18.6a1.907 1.907 0 0 1 1.512-3.06h7.7l-23.829-34.53-23.829 34.53h7.7a1.907 1.907 0 0 1 1.513 3.06zM500.75 6669a1.9 1.9 0 0 1-1.9-1.9v-28.64a1.9 1.9 0 1 1 3.8 0v28.64a1.9 1.9 0 0 1-1.9 1.9z" transform="translate(-466.25 -6589)"/></svg>