<svg xmlns="http://www.w3.org/2000/svg" viewBox="0 0 14.92 13.81"><defs><style>.cls-1{fill:#1fae8a;}</style></defs><title>Asset 4</title><g id="Layer_2" data-name="Layer 2"><g id="Layer_1-2" data-name="Layer 1"><path class="cls-1" d="M14.92,12.69v-7a1.12,1.12,0,0,0-.06-.35h0a1.21,1.21,0,0,0-.4-.56L8.12.22A1.1,1.1,0,0,0,6.8.22L.46,4.79a1.21,1.21,0,0,0-.4.56h0A1.12,1.12,0,0,0,0,5.7v7a1.13,1.13,0,0,0,.4.85L7.3,9.33l-6.55-4,.06-.06,4.11-3h0L7.15.7a.53.53,0,0,1,.62,0L10,2.31h0l4.11,3s0,0,.06.06l-6.55,4,6.9,4.21a1.13,1.13,0,0,0,.4-.85ZM7.46,9.59.68,13.72a1,1,0,0,0,.44.09H13.8a1.14,1.14,0,0,0,.49-.12L7.46,9.59Z"/></g></g></svg>