<svg xmlns="http://www.w3.org/2000/svg" viewBox="0 0 14.82 14.82"><defs><style>.cls-1{fill:#fff;}</style></defs><title>Asset 10</title><g id="Layer_2" data-name="Layer 2"><g id="Layer_1-2" data-name="Layer 1"><path class="cls-1" d="M7.41,3.56a3.81,3.81,0,1,0,3.81,3.81A3.82,3.82,0,0,0,7.41,3.56Zm0,6.26A2.45,2.45,0,1,1,9.86,7.37,2.45,2.45,0,0,1,7.41,9.82Z"/><path class="cls-1" d="M11.37,2.6a.87.87,0,1,0,.86.87.87.87,0,0,0-.86-.87Z"/><path class="cls-1" d="M13.63,1.22A4.3,4.3,0,0,0,10.49,0H4.33A4.11,4.11,0,0,0,0,4.34v6.12a4.31,4.31,0,0,0,1.25,3.19,4.35,4.35,0,0,0,3.12,1.17h6.08a4.38,4.38,0,0,0,3.15-1.17,4.28,4.28,0,0,0,1.22-3.16V4.34a4.29,4.29,0,0,0-1.19-3.12Zm-.17,9.27a2.94,2.94,0,0,1-.81,2.18,3.05,3.05,0,0,1-2.2.79H4.37a3,3,0,0,1-2.17-.79,3,3,0,0,1-.84-2.21V4.34a3,3,0,0,1,.8-2.18,3,3,0,0,1,2.17-.79h6.16a3,3,0,0,1,2.17.81,3,3,0,0,1,.8,2.16v6.15Z"/></g></g></svg>