<svg xmlns="http://www.w3.org/2000/svg" viewBox="0 0 14.76 14.86"><defs><style>.cls-1{fill:#fff;}</style></defs><title>Asset 12</title><g id="Layer_2" data-name="Layer 2"><g id="Layer_1-2" data-name="Layer 1"><path class="cls-1" d="M7.94,6.71v0l0,0Z"/><path class="cls-1" d="M13.67,0H1.09A1.08,1.08,0,0,0,0,1.07V13.8a1.07,1.07,0,0,0,1.09,1.06H13.67a1.07,1.07,0,0,0,1.09-1.06V1.07A1.08,1.08,0,0,0,13.67,0ZM4.47,12.44H2.24V5.73H4.47v6.71ZM3.36,4.82h0a1.16,1.16,0,1,1,0-2.32A1.15,1.15,0,0,1,4.62,3.66,1.16,1.16,0,0,1,3.36,4.82Zm9.15,7.62H10.29V8.85c0-.9-.33-1.51-1.13-1.51A1.22,1.22,0,0,0,8,8.15a1.5,1.5,0,0,0-.07.55v3.74H5.71s0-6.08,0-6.71H7.94v.95a2.21,2.21,0,0,1,2-1.1c1.47,0,2.56,1,2.56,3v3.84Z"/></g></g></svg>