<svg xmlns="http://www.w3.org/2000/svg" viewBox="0 0 318.06 45"><title>Asset 1</title><g id="Layer_2" data-name="Layer 2"><g id="Layer_1-2" data-name="Layer 1"><path d="M12.55,16.77a5.4,5.4,0,0,1,.59-2.56,3.91,3.91,0,0,1,2.66-2,17.13,17.13,0,0,1,3.77-.28h6.65V8.6H19.85q-5.93,0-8.57,1.46a6.28,6.28,0,0,0-3,3.65,8.25,8.25,0,0,0-.42,2.46V28.23h4.83V20.28h16c2,0,3,.72,3,2.14a2.17,2.17,0,0,1-.76,1.76,3,3,0,0,1-2,.62H21.36l.09,3.43h7.72a2.49,2.49,0,0,1,2.55,2.54,2.25,2.25,0,0,1-.8,1.57,2.5,2.5,0,0,1-1.67.6l-9.82,0V36.4H30.74a6.57,6.57,0,0,0,3.9-1.17,4.65,4.65,0,0,0,2-3.21,4.9,4.9,0,0,0,.09-.9A5,5,0,0,0,36,28.4a5.23,5.23,0,0,0-2.16-1.91,5.72,5.72,0,0,0,2.08-1.75,4.54,4.54,0,0,0,.7-2.59,5.19,5.19,0,0,0-1.41-3.72,5.7,5.7,0,0,0-4.37-1.66"/><path d="M32.5,45H0V11.64C0,.13,11.52,0,11.64,0H44.55V33c0,11.91-11.93,12-12,12ZM.56,44.44H32.5A14.53,14.53,0,0,0,38.27,43C42.07,41.08,44,37.71,44,33V.56H11.64A14,14,0,0,0,6.07,2C2.41,3.79.56,7.05.56,11.64v32.8Z"/><path d="M62.49,32.06l-.57-1.58h-4l-.59,1.58H55.06l3.61-9.34h2.49l3.6,9.34Zm-2.57-7.35-1.46,4h2.91Z"/><path d="M74.13,32.06l-1.84-3.32H70.83v3.32h-2V22.72h4.37a2.9,2.9,0,0,1,3.13,3,2.67,2.67,0,0,1-2,2.77l2.1,3.56Zm.19-6.33a1.27,1.27,0,0,0-1.4-1.26H70.83V27h2.09A1.26,1.26,0,0,0,74.32,25.73Z"/><path d="M80.62,27.4a4.74,4.74,0,0,1,5-4.83,4.28,4.28,0,0,1,3.91,2.28l-1.71.84a2.52,2.52,0,0,0-2.2-1.36,2.91,2.91,0,0,0-2.93,3.07,2.92,2.92,0,0,0,2.93,3.07,2.5,2.5,0,0,0,2.2-1.36l1.71.82a4.29,4.29,0,0,1-3.91,2.3A4.74,4.74,0,0,1,80.62,27.4Z"/><path d="M100.31,32.06V28.14H95.89v3.92h-2V22.72h2v3.67h4.42V22.72h2v9.34Z"/><path d="M107.36,32.06V22.72h2v9.34Z"/><path d="M116.57,32.06V24.47h-2.73V22.72h7.45v1.75h-2.71v7.59Z"/><path d="M125.78,32.06V22.72h6.61v1.75h-4.62v2h4.53V28.2h-4.53v2.11h4.62v1.75Z"/><path d="M136.72,27.4a4.74,4.74,0,0,1,5-4.83,4.28,4.28,0,0,1,3.91,2.28l-1.71.84a2.52,2.52,0,0,0-2.2-1.36,2.91,2.91,0,0,0-2.93,3.07,2.91,2.91,0,0,0,2.93,3.07,2.5,2.5,0,0,0,2.2-1.36l1.71.82a4.3,4.3,0,0,1-3.91,2.3A4.74,4.74,0,0,1,136.72,27.4Z"/><path d="M152.16,32.06V24.47h-2.73V22.72h7.45v1.75h-2.72v7.59Z"/><path d="M161.37,28.34V22.72h2v5.55a2.19,2.19,0,1,0,4.38,0V22.72h2v5.6c0,2.33-1.37,3.91-4.21,3.91S161.37,30.63,161.37,28.34Z"/><path d="M180.13,32.06l-1.83-3.32h-1.46v3.32h-2V22.72h4.37a2.91,2.91,0,0,1,3.14,3,2.68,2.68,0,0,1-2,2.77l2.1,3.56Zm.2-6.33a1.27,1.27,0,0,0-1.4-1.26h-2.09V27h2.09A1.26,1.26,0,0,0,180.33,25.73Z"/><path d="M187.07,32.06V22.72h6.62v1.75h-4.63v2h4.53V28.2h-4.53v2.11h4.63v1.75Z"/><path d="M208.48,27.89v2.84h-1.22V27.89h-2.52V26.78h2.52V24.05h1.22v2.73H211v1.11Z"/><path d="M222.34,32.06V22.72h2v9.34Z"/><path d="M235.84,32.06,231.38,26v6.09h-2V22.72h2l4.33,5.87V22.72h2v9.34Z"/><path d="M245,32.06V24.47h-2.73V22.72h7.45v1.75H247v7.59Z"/><path d="M254.19,32.06V22.72h6.61v1.75h-4.62v2h4.52V28.2h-4.52v2.11h4.62v1.75Z"/><path d="M270.85,32.06,269,28.74h-1.46v3.32h-2V22.72h4.37a2.91,2.91,0,0,1,3.14,3A2.67,2.67,0,0,1,271,28.5l2.11,3.56Zm.2-6.33a1.27,1.27,0,0,0-1.4-1.26h-2.09V27h2.09A1.26,1.26,0,0,0,271.05,25.73Z"/><path d="M277.79,32.06V22.72h2v9.34Z"/><path d="M284.4,27.4a4.88,4.88,0,0,1,9.76,0,4.88,4.88,0,0,1-9.76,0Zm7.72,0a2.84,2.84,0,1,0-5.67,0,2.84,2.84,0,1,0,5.67,0Z"/><path d="M304.06,32.06l-1.84-3.32h-1.45v3.32h-2V22.72h4.37a2.91,2.91,0,0,1,3.14,3,2.67,2.67,0,0,1-2.05,2.77l2.1,3.56Zm.2-6.33a1.28,1.28,0,0,0-1.41-1.26h-2.08V27h2.08A1.27,1.27,0,0,0,304.26,25.73Z"/><path d="M310.37,30.75l1.08-1.52a4.08,4.08,0,0,0,3,1.26c1.09,0,1.62-.5,1.62-1,0-1.66-5.38-.52-5.38-4,0-1.55,1.35-2.84,3.55-2.84a5.21,5.21,0,0,1,3.64,1.3l-1.11,1.46a4,4,0,0,0-2.71-1c-.86,0-1.33.37-1.33.93,0,1.49,5.36.5,5.36,4,0,1.71-1.22,3-3.74,3A5.34,5.34,0,0,1,310.37,30.75Z"/></g></g></svg>