<svg xmlns="http://www.w3.org/2000/svg" viewBox="0 0 44.55 45"><title>Asset 6</title><g id="Layer_2" data-name="Layer 2"><g id="Layer_1-2" data-name="Layer 1"><path d="M32.5,45H1.64A1.65,1.65,0,0,1,0,43.36V11.64C0,.13,11.52,0,11.64,0H42.91a1.65,1.65,0,0,1,1.64,1.64V33c0,11.91-11.93,12-12,12ZM.56,44.44H32.5A14.53,14.53,0,0,0,38.27,43C42.07,41.08,44,37.71,44,33V2.2A1.65,1.65,0,0,0,42.35.56H11.64A14,14,0,0,0,6.07,2C2.41,3.79.56,7.05.56,11.64v32.8Z"/><path d="M12.55,16.77a5.4,5.4,0,0,1,.59-2.56,3.91,3.91,0,0,1,2.66-2,17.13,17.13,0,0,1,3.77-.28h5a1.65,1.65,0,0,0,1.64-1.64h0A1.65,1.65,0,0,0,24.58,8.6H19.85q-5.93,0-8.57,1.46a6.28,6.28,0,0,0-3,3.65,8.25,8.25,0,0,0-.42,2.46V26.58a1.65,1.65,0,0,0,1.64,1.65H11a1.65,1.65,0,0,0,1.64-1.65V21.93a1.65,1.65,0,0,1,1.64-1.65H28.66c2,0,3,.72,3,2.14a2.17,2.17,0,0,1-.76,1.76,3,3,0,0,1-2,.62H23.05a1.65,1.65,0,0,0-1.65,1.69v.14a1.64,1.64,0,0,0,1.64,1.6h6.12a2.49,2.49,0,0,1,2.55,2.54,2.25,2.25,0,0,1-.8,1.57,2.5,2.5,0,0,1-1.67.6l-8.19,0a1.64,1.64,0,0,0-1.63,1.64v.14a1.64,1.64,0,0,0,1.64,1.65h9.67a6.57,6.57,0,0,0,3.9-1.17,4.65,4.65,0,0,0,2-3.21,4.9,4.9,0,0,0,.09-.9A5,5,0,0,0,36,28.4a4.51,4.51,0,0,0-.63-.81,1.61,1.61,0,0,1,0-2.24,4.85,4.85,0,0,0,.51-.61,4.54,4.54,0,0,0,.7-2.59,5.19,5.19,0,0,0-1.41-3.72,5.7,5.7,0,0,0-4.37-1.66"/></g></g></svg>