<svg xmlns="http://www.w3.org/2000/svg" viewBox="0 0 14.73 11.97"><defs><style>.cls-1{fill:#1fae8a;}</style></defs><title>Asset 3</title><g id="Layer_2" data-name="Layer 2"><g id="Layer_1-2" data-name="Layer 1"><path class="cls-1" d="M14.73,1.42A6,6,0,0,1,13,1.89,3,3,0,0,0,14.32.22,6,6,0,0,1,12.4,1,3,3,0,0,0,7.18,3a3.11,3.11,0,0,0,.07.69A8.56,8.56,0,0,1,1,.56,3,3,0,0,0,.62,2.07,3,3,0,0,0,2,4.59,3.05,3.05,0,0,1,.59,4.21v0A3,3,0,0,0,3,7.21a3.09,3.09,0,0,1-.8.11,2.76,2.76,0,0,1-.57-.06,3,3,0,0,0,2.82,2.1,6,6,0,0,1-3.75,1.3A5.81,5.81,0,0,1,0,10.61,8.55,8.55,0,0,0,4.63,12a8.54,8.54,0,0,0,8.6-8.6c0-.13,0-.26,0-.39a6.06,6.06,0,0,0,1.51-1.56Z"/></g></g></svg>