<svg xmlns="http://www.w3.org/2000/svg" viewBox="0 0 14.65 14.33"><defs><style>.cls-1{fill:#fff;}</style></defs><title>Asset 9</title><g id="Layer_2" data-name="Layer 2"><g id="Layer_1-2" data-name="Layer 1"><path class="cls-1" d="M12,6.82H2.68A2.68,2.68,0,0,0,0,9.5v2.15a2.68,2.68,0,0,0,2.68,2.68H12a2.68,2.68,0,0,0,2.68-2.68V9.5A2.68,2.68,0,0,0,12,6.82ZM4.63,8.5H3.77v4.29H2.93V8.5H2.07V7.77H4.63V8.5Zm2.44,4.29H6.33v-.4a1.65,1.65,0,0,1-.43.34.88.88,0,0,1-.43.12.45.45,0,0,1-.38-.17A.75.75,0,0,1,5,12.19V9.09H5.7v2.84a.32.32,0,0,0,0,.19.19.19,0,0,0,.15.06.43.43,0,0,0,.21-.08.87.87,0,0,0,.23-.2V9.09h.74v3.7ZM9.76,12a1,1,0,0,1-.17.6.64.64,0,0,1-.51.21.79.79,0,0,1-.38-.08.93.93,0,0,1-.32-.25v.28H7.63v-5h.75V9.39a1.08,1.08,0,0,1,.32-.26A.69.69,0,0,1,9,9a.66.66,0,0,1,.54.24,1.13,1.13,0,0,1,.18.69V12Zm2.57-1H10.91v.7a.75.75,0,0,0,.08.4.27.27,0,0,0,.25.12.33.33,0,0,0,.26-.1.87.87,0,0,0,.07-.42v-.17h.76v.19a1.17,1.17,0,0,1-.28.86,1.1,1.1,0,0,1-.83.29,1.07,1.07,0,0,1-.79-.31,1.21,1.21,0,0,1-.28-.84V10.08a1,1,0,0,1,.31-.78A1.1,1.1,0,0,1,11.28,9a1,1,0,0,1,.78.29,1.09,1.09,0,0,1,.27.8V11Z"/><path class="cls-1" d="M11.24,9.64a.28.28,0,0,0-.25.11.53.53,0,0,0-.08.33v.37h.66v-.37a.53.53,0,0,0-.08-.33.28.28,0,0,0-.25-.11Z"/><path class="cls-1" d="M8.69,9.63a.32.32,0,0,0-.16,0,.48.48,0,0,0-.15.11v2.31a.59.59,0,0,0,.17.13.39.39,0,0,0,.18,0,.25.25,0,0,0,.2-.08A.34.34,0,0,0,9,11.93V10a.44.44,0,0,0-.08-.28.26.26,0,0,0-.23-.1Z"/><polygon class="cls-1" points="3.89 5.54 4.83 5.54 4.83 3.24 5.93 0 4.97 0 4.39 2.21 4.33 2.21 3.72 0 2.77 0 3.89 3.34 3.89 5.54 3.89 5.54"/><path class="cls-1" d="M7.2,5.64a1.24,1.24,0,0,0,.89-.3,1,1,0,0,0,.33-.82V2.41a1,1,0,0,0-.33-.77,1.27,1.27,0,0,0-.85-.29,1.38,1.38,0,0,0-.91.28A1,1,0,0,0,6,2.39V4.5a1.08,1.08,0,0,0,.33.83,1.21,1.21,0,0,0,.88.31ZM6.85,2.35A.28.28,0,0,1,7,2.14a.33.33,0,0,1,.25-.08.35.35,0,0,1,.26.08.26.26,0,0,1,.11.21V4.58a.36.36,0,0,1-.1.26.4.4,0,0,1-.27.09.31.31,0,0,1-.35-.35V2.35Z"/><path class="cls-1" d="M9.68,5.6a1.15,1.15,0,0,0,.48-.13,1.72,1.72,0,0,0,.48-.39v.46h.83V1.45h-.83v3.1a1.09,1.09,0,0,1-.26.22.45.45,0,0,1-.23.09A.18.18,0,0,1,10,4.79a.36.36,0,0,1-.05-.21V1.45H9.09V4.87c0,.24-2.86.34-2.77.46a29.69,29.69,0,0,0,3.36.27Z"/></g></g></svg>