<svg xmlns="http://www.w3.org/2000/svg" width="37" height="40.03" viewBox="0 0 37 40.03">
  <path id="icon" class="cls-1" d="M266.849,3031.24H262.54a0.955,0.955,0,0,1,0-1.91h4.309a0.246,0.246,0,0,0,.244-0.24v-32.4a0.246,0.246,0,0,0-.244-0.24H240.683a1.471,1.471,0,0,1-.115.39v32.25a0.245,0.245,0,0,0,.244.24h16.715a0.955,0.955,0,0,1,0,1.91H240.812a2.157,2.157,0,0,1-2.151-2.15v-32.34a9.7,9.7,0,0,0-2.09-.33,0.973,0.973,0,0,1-.915-1,0.989,0.989,0,0,1,1.011-.91c0.142,0.01.854,0.03,2.548,0.03h27.634a2.157,2.157,0,0,1,2.151,2.15v32.4A2.157,2.157,0,0,1,266.849,3031.24Zm-27.212-31.48h-6.684a0.957,0.957,0,0,1-.953-0.96,4.3,4.3,0,0,1,8.591,0A0.957,0.957,0,0,1,239.637,2999.76Zm-5.532-1.91h4.381A2.393,2.393,0,0,0,234.105,2997.85Zm25.761,30.1a4.74,4.74,0,1,1,4.744-4.74A4.75,4.75,0,0,1,259.866,3027.95Zm0-7.58a2.835,2.835,0,1,0,2.838,2.84A2.84,2.84,0,0,0,259.866,3020.37Zm2.492,14.15a0.964,0.964,0,0,1-.623-0.23l-1.621-1.4-1.62,1.4a0.957,0.957,0,0,1-1.577-.72v-7.18a0.954,0.954,0,0,1,1.907,0v5.1l0.618-.54a0.952,0.952,0,0,1,.623-0.23h0.1a0.948,0.948,0,0,1,.623.23l0.619,0.54v-5.1a0.953,0.953,0,0,1,1.906,0v7.18a0.941,0.941,0,0,1-.556.86A0.927,0.927,0,0,1,262.358,3034.52Zm-3.325-32.04H248.9a0.95,0.95,0,1,1,0-1.9h10.135A0.95,0.95,0,1,1,259.033,3002.48Zm3.468,4.48h-17.07a0.95,0.95,0,1,1,0-1.9H262.5A0.95,0.95,0,1,1,262.5,3006.96Zm-1.174,4.27H246.6a0.955,0.955,0,0,1,0-1.91h14.723A0.955,0.955,0,0,1,261.327,3011.23Zm1.174,4.26h-17.07a0.955,0.955,0,0,1,0-1.91H262.5A0.955,0.955,0,0,1,262.5,3015.49Z" transform="translate(-232 -2994.5)"/>
</svg>
