<svg xmlns="http://www.w3.org/2000/svg" width="45.5" height="39.97" viewBox="0 0 45.5 39.97">
  <path id="icon" class="cls-1" d="M1150.47,3034.48c-4.11,0-9.51-.46-13.88-2.43-5.08-2.29-10.72-5.47-9.23-9.72,0.9-2.57,6.38-10.81,7.01-11.74a1.116,1.116,0,0,1,1.56-.31,1.136,1.136,0,0,1,.3,1.57c-1.64,2.47-6.06,9.29-6.74,11.23-0.66,1.88,2.04,4.2,8.02,6.91,7.11,3.2,17.7,2.03,18.76,1.91,3.56-1.11,7.11-5.12,7.15-5.16,6.83-8.57,6.9-11.31,6.95-13.51l0.01-.35c0.05-1.76-2.01-3.21-2.03-3.23a1.127,1.127,0,0,1,1.26-1.87c0.13,0.09,3.11,2.15,3.01,5.17v0.33c-0.06,2.54-.13,5.71-7.48,14.91-0.2.23-4.1,4.65-8.31,5.9a1.364,1.364,0,0,1-.17.04A51.62,51.62,0,0,1,1150.47,3034.48Zm6.04-1.47h0Zm-6.76-1.58a32.132,32.132,0,0,1-16.24-4.1l-0.1-.06a1.142,1.142,0,0,1-.57-1.37,1.12,1.12,0,0,1,1.42-.72,1.314,1.314,0,0,1,.39.2c2.31,1.37,8.71,4.48,18.25,3.65a1.129,1.129,0,0,1,.19,2.25C1151.94,3031.38,1150.82,3031.43,1149.75,3031.43Zm-2.75-15.25a1.5,1.5,0,0,1-.2-0.02,1.132,1.132,0,0,1-.91-1.31c2.48-13.88,9.5-18.46,9.8-18.65a1.121,1.121,0,0,1,1.55.36,1.142,1.142,0,0,1-.35,1.56c-0.08.05-6.5,4.34-8.78,17.13A1.134,1.134,0,0,1,1147,3016.18Zm-4.1-.52a1.121,1.121,0,0,1-1.12-1.1c0-.16-0.04-3.8,3.25-11.09,3.39-7.54,8.06-8.89,8.26-8.95a1.352,1.352,0,0,1,.29-0.04,24.334,24.334,0,0,1,3.02.31,3.675,3.675,0,0,1,2.9,1.96c0.25,0.08.4,0.11,0.54,0.15a4.006,4.006,0,0,1,1.1.37,1.132,1.132,0,0,1,.52,1.51,1.118,1.118,0,0,1-1.51.52,1.967,1.967,0,0,0-.58-0.19,7.324,7.324,0,0,1-.78-0.21l-0.47-.13a1.145,1.145,0,0,1-.8-0.92,1.341,1.341,0,0,0-1.25-.82c-1.37-.2-2.19-0.26-2.52-0.28-0.69.27-4.06,1.84-6.68,7.65-3.03,6.74-3.04,10.08-3.04,10.12a1.133,1.133,0,0,1-1.11,1.14h-0.02Zm8.1,10.5a43.528,43.528,0,0,1-7.47-.72c-4.36-.72-8.03-4.67-8.18-4.84a1.1,1.1,0,0,1-.24-0.42,22.42,22.42,0,0,1-1.08-5.43l-0.01-.44c-0.03-2.13-.08-5.68,3.95-11.33a14.521,14.521,0,0,1,3.21-3.48,1.122,1.122,0,0,1,1.58.22,1.143,1.143,0,0,1-.23,1.59,12.24,12.24,0,0,0-2.73,2.99c-3.6,5.04-3.56,8.13-3.53,9.97l0.01,0.48a19.311,19.311,0,0,0,.89,4.49c0.71,0.71,3.6,3.45,6.72,3.96a36.608,36.608,0,0,0,18.52-1.1,14.986,14.986,0,0,0,6.07-7.53c0.02-1.04-.04-8.19-4.7-12.7a1.01,1.01,0,0,1-.16-0.13,1.152,1.152,0,0,1-.34-0.88c0.01-.01.11-1.88-0.96-1.98-0.85,0-3.63,2.96-5.83,6.21a1.129,1.129,0,1,1-1.86-1.28c1.52-2.25,5.35-7.43,7.91-7.19,2.27,0.23,2.93,2.34,3,3.82,5.55,5.57,5.2,14.01,5.18,14.37a1.259,1.259,0,0,1-.04.27c-1.72,5.81-7.03,8.92-7.25,9.05a1.725,1.725,0,0,1-.24.1A41.775,41.775,0,0,1,1151,3026.16Zm-10.65-19.77a0.57,0.57,0,0,1-.13-0.01,1.126,1.126,0,0,1-.99-1.25c0.77-7.01,5.68-9.67,7.51-10.1a5.316,5.316,0,0,1,3.48.77,9.066,9.066,0,0,1,.99-0.11,1.128,1.128,0,0,1,.16,2.25c-0.41.03-.7,0.08-1.14,0.15l-0.15.03a1.129,1.129,0,0,1-1.05-.4,3.309,3.309,0,0,0-1.77-.49c-0.05.02-5.06,1.49-5.8,8.15A1.124,1.124,0,0,1,1140.35,3006.39Z" transform="translate(-1127.12 -2994.5)"/>
</svg>
