<svg xmlns="http://www.w3.org/2000/svg" width="41" height="40" viewBox="0 0 41 40">
  <path id="icon" class="cls-1" d="M536.789,3329.21a0.948,0.948,0,0,1-.817-0.48l-5.828-10.28a4.411,4.411,0,0,1-.646-2.14,5.1,5.1,0,0,1,.926-2.59l1.364-2.15-0.947-.58a1.439,1.439,0,0,1,.651-2.74l8.593-.22a0.925,0.925,0,0,1,.854.51l3.868,7.35a2.538,2.538,0,0,1,.319,1.11,1.3,1.3,0,0,1-1.386,1.32,0.945,0.945,0,0,1-.491-0.14l-0.962-.6-3.947,6.27a4.727,4.727,0,0,0-.819,2.56,8.061,8.061,0,0,0,.188,1.65,0.959,0.959,0,0,1-.582,1.09A1,1,0,0,1,536.789,3329.21Zm-3.741-19.1,0.542,0.33a0.974,0.974,0,0,1,.431.6,0.952,0.952,0,0,1-.125.73l-1.882,2.96a3.382,3.382,0,0,0-.634,1.58,2.545,2.545,0,0,0,.4,1.19l4.1,7.23a7.277,7.277,0,0,1,.881-1.91l4.439-7.05a0.939,0.939,0,0,1,1.246-.32l-2.892-5.5Zm11.189,1.12a0.9,0.9,0,0,1-.524-0.16l-7.919-5.36a0.964,0.964,0,0,1-.274-1.3l4.548-7.35a3.513,3.513,0,0,1,3.254-1.48c2.452,0,4.606,2.22,6.585,6.79a0.943,0.943,0,0,1-.071.89l-4.808,7.54a1,1,0,0,1-.6.42A1.21,1.21,0,0,1,544.237,3311.23Zm-6.636-6.59,6.364,4.31,4.012-6.28c-1.539-3.39-3.143-5.18-4.655-5.18a1.822,1.822,0,0,0-1.654.58Zm11.993,27h-9.277c-1.249,0-3.345-.61-3.345-4.73a6.962,6.962,0,0,1,.782-3.18,33.019,33.019,0,0,1,2.132-3.34,0.928,0.928,0,0,1,.771-0.41h8.937a0.948,0.948,0,0,1,.941.95v9.76A0.948,0.948,0,0,1,549.594,3331.64Zm-8.446-9.75a25.8,25.8,0,0,0-1.713,2.7,5.094,5.094,0,0,0-.58,2.32c0,2.83,1.025,2.83,1.462,2.83h8.335v-7.85h-7.5Zm18.272-12.45a0.194,0.194,0,0,1-.075-0.01l-8.494-.68a1.389,1.389,0,0,1-1.363-1.4,1.354,1.354,0,0,1,.792-1.29l0.724-.35-1.738-3.69a13.407,13.407,0,0,0-3.106-4.63,7.51,7.51,0,0,0-2.356-1.03,0.952,0.952,0,0,1,.276-1.86h10.74c2.674,0,4.5.96,5.442,2.85l1.315,2.64,1.057-.49,0.094-.03a2.382,2.382,0,0,0,.266-0.1,1.236,1.236,0,0,1,1.7,1.32,2.525,2.525,0,0,1-.333,1.24l-4.137,7.04A0.943,0.943,0,0,1,559.42,3309.44Zm-8.332-1.66-0.019.01A0.019,0.019,0,0,1,551.088,3307.78Zm1.635-.79,6.187,0.5,3.358-5.72-0.731.34a0.938,0.938,0,0,1-1.233-.44l-1.725-3.46c-0.6-1.22-1.83-1.81-3.759-1.81H547.9a17.446,17.446,0,0,1,3.07,4.8l2.144,4.55a0.967,0.967,0,0,1,.038.73A1,1,0,0,1,552.723,3306.99Zm3.74,27.51a1.87,1.87,0,0,1-1.516-1.07l-4.391-6.82a0.971,0.971,0,0,1-.027-1l4.233-7.42a1.4,1.4,0,0,1,1.233-.69c0.223,0,1.334.08,1.334,1.77v0.45h5.748a10.838,10.838,0,0,0,3.283-.38,5.746,5.746,0,0,0,2.491-1.78,0.927,0.927,0,0,1,1.248-.15,0.948,0.948,0,0,1,.284,1.23l-6.009,11.05a3.9,3.9,0,0,1-3.7,2.06h-2.769v1.37a1.352,1.352,0,0,1-1,1.3A1.408,1.408,0,0,1,556.463,3334.5Zm-4.014-8.44,3.573,5.55v-0.82a0.948,0.948,0,0,1,.941-0.95h3.711a2.03,2.03,0,0,0,2.047-1.06h0l4.129-7.59a13.029,13.029,0,0,1-3.775.43h-6.689a0.941,0.941,0,0,1-.935-0.83Zm12.485-5.84h-4a0.931,0.931,0,0,1-.806-0.46l-4.757-7.95a0.97,0.97,0,0,1-.106-0.73,0.953,0.953,0,0,1,.439-0.59l8.181-4.81a0.932,0.932,0,0,1,1.26.3l4.756,7.35a3.337,3.337,0,0,1,.6,1.87,4.582,4.582,0,0,1-2,3.55A5.687,5.687,0,0,1,564.934,3320.22Zm-3.468-1.9h3.468a3.907,3.907,0,0,0,2.385-1.06,2.807,2.807,0,0,0,1.3-2.06,1.5,1.5,0,0,0-.283-0.82l-4.275-6.6-6.581,3.87Z" transform="translate(-529.5 -3294.5)"/>
</svg>
