<svg xmlns="http://www.w3.org/2000/svg" width="40" height="39.97" viewBox="0 0 40 39.97">
  <path id="icon" class="cls-1" d="M851.144,3001.27a0.894,0.894,0,0,1-.557-0.19l-1.018-.74-1.018.74a0.918,0.918,0,0,1-1.112,0,0.948,0.948,0,0,1-.344-1.06l0.389-1.2-1.018-.75a0.952,0.952,0,0,1,.556-1.72h1.258l0.389-1.2a0.944,0.944,0,0,1,1.8,0l0.388,1.2h1.259a0.952,0.952,0,0,1,.556,1.72l-1.018.75,0.389,1.2a0.949,0.949,0,0,1-.344,1.06A0.894,0.894,0,0,1,851.144,3001.27Zm-1.575-3.06h0.057c0.01-.03.022-0.07,0.035-0.11l-0.092-.06c-0.029.02-.059,0.04-0.091,0.06,0.013,0.04.025,0.08,0.035,0.11h0.056Zm-9.774,5.72a0.946,0.946,0,0,1-.9-1.24l0.389-1.21-1.018-.74a0.966,0.966,0,0,1-.344-1.07,0.944,0.944,0,0,1,.9-0.65h1.258l0.389-1.21a0.944,0.944,0,0,1,1.8,0l0.389,1.21h1.258a0.943,0.943,0,0,1,.9.65,0.964,0.964,0,0,1-.344,1.07l-1.018.74,0.389,1.21a0.947,0.947,0,0,1-1.456,1.06l-1.019-.74-1.018.74A0.948,0.948,0,0,1,839.8,3003.93Zm1.482-3.16c0.014,0.04.025,0.07,0.035,0.11h0.114a0.753,0.753,0,0,1,.035-0.11,0.521,0.521,0,0,1-.092-0.07A0.457,0.457,0,0,1,841.277,3000.77Zm23.813,8.76a0.948,0.948,0,0,1-.556-0.18l-1.018-.74-1.018.74a0.947,0.947,0,0,1-1.457-1.06l0.389-1.21-1.019-.74a0.959,0.959,0,0,1-.343-1.07,0.943,0.943,0,0,1,.9-0.65h1.259l0.389-1.21a0.944,0.944,0,0,1,1.8,0l0.389,1.21h1.258a0.944,0.944,0,0,1,.9.65,0.961,0.961,0,0,1-.344,1.07l-1.018.74,0.389,1.21A0.946,0.946,0,0,1,865.09,3009.53Zm-1.574-3.05h0.057a0.933,0.933,0,0,1,.035-0.11,0.457,0.457,0,0,1-.092-0.07,0.487,0.487,0,0,1-.092.07c0.014,0.04.025,0.07,0.035,0.11h0.057Zm-4.148-2.64a0.949,0.949,0,0,1-.557-0.18l-1.018-.74-1.018.74a0.946,0.946,0,0,1-1.456-1.06l0.388-1.21-1.018-.74a0.959,0.959,0,0,1-.343-1.07,0.942,0.942,0,0,1,.9-0.65H856.5l0.389-1.21a0.944,0.944,0,0,1,1.8,0l0.389,1.21h1.259a0.941,0.941,0,0,1,.9.65,0.959,0.959,0,0,1-.343,1.07l-1.019.74,0.389,1.21A0.946,0.946,0,0,1,859.368,3003.84Zm-1.575-3.05h0.057c0.01-.04.021-0.07,0.035-0.11a0.487,0.487,0,0,1-.092-0.07,0.457,0.457,0,0,1-.092.07c0.014,0.04.026,0.07,0.036,0.11h0.056Zm-20.506,8.9a0.949,0.949,0,0,1-.557-0.18l-1.018-.75-1.018.75a0.95,0.95,0,0,1-1.113,0,0.971,0.971,0,0,1-.344-1.07l0.389-1.2-1.018-.75a0.952,0.952,0,0,1,.557-1.72h1.258l0.389-1.2a0.944,0.944,0,0,1,1.8,0l0.389,1.2h1.259a0.952,0.952,0,0,1,.557,1.72l-1.019.75,0.389,1.2a0.969,0.969,0,0,1-.344,1.07A0.948,0.948,0,0,1,837.287,3009.69Zm-1.575-3.06a0.115,0.115,0,0,1,.057.01,0.648,0.648,0,0,1,.035-0.11c-0.031-.02-0.062-0.05-0.092-0.07-0.029.02-.06,0.05-0.092,0.07a0.57,0.57,0,0,1,.035.11A0.115,0.115,0,0,1,835.712,3006.63Zm32.028,11.15a0.951,0.951,0,0,1-.557-0.18l-1.017-.74-1.018.74a0.949,0.949,0,0,1-1.457-1.07l0.389-1.2-1.019-.74a0.971,0.971,0,0,1-.344-1.07,0.953,0.953,0,0,1,.9-0.66h1.258l0.389-1.2a0.944,0.944,0,0,1,1.8,0l0.389,1.2h1.258a0.952,0.952,0,0,1,.9.66,0.968,0.968,0,0,1-.344,1.07l-1.018.74,0.389,1.2a0.958,0.958,0,0,1-.344,1.07A0.946,0.946,0,0,1,867.74,3017.78Zm-1.574-3.05h0.056a0.753,0.753,0,0,1,.035-0.11,0.452,0.452,0,0,1-.091-0.07,0.487,0.487,0,0,1-.092.07,0.753,0.753,0,0,1,.035.11h0.057Zm-4.136,11.32a0.946,0.946,0,0,1-.9-1.24l0.389-1.21-1.018-.74a0.959,0.959,0,0,1-.344-1.07,0.943,0.943,0,0,1,.9-0.65h1.259l0.389-1.21a0.944,0.944,0,0,1,1.8,0l0.388,1.21h1.259a0.944,0.944,0,0,1,.9.65,0.959,0.959,0,0,1-.344,1.07l-1.018.74,0.389,1.21a0.947,0.947,0,0,1-1.457,1.06l-1.018-.74-1.018.74A0.949,0.949,0,0,1,862.03,3026.05Zm1.483-3.16c0.013,0.04.025,0.07,0.035,0.11h0.114c0.01-.04.021-0.07,0.035-0.11a0.487,0.487,0,0,1-.092-0.07A0.457,0.457,0,0,1,863.513,3022.89Zm-3.991,8.92a0.948,0.948,0,0,1-.556-0.18l-1.018-.75-1.018.75a0.949,0.949,0,0,1-1.457-1.07l0.389-1.2-1.018-.75a0.952,0.952,0,0,1,.557-1.72h1.258l0.389-1.2a0.944,0.944,0,0,1,1.8,0l0.389,1.2H860.5a0.952,0.952,0,0,1,.9.66,0.969,0.969,0,0,1-.344,1.07l-1.018.74,0.389,1.2a0.961,0.961,0,0,1-.344,1.07A0.949,0.949,0,0,1,859.522,3031.81Zm-1.666-3.16a0.648,0.648,0,0,1,.035.11,0.22,0.22,0,0,1,.114,0,0.57,0.57,0,0,1,.035-0.11c-0.032-.02-0.063-0.05-0.092-0.07C857.918,3028.6,857.888,3028.63,857.856,3028.65Zm-23.13-10.69a0.948,0.948,0,0,1-.556-0.18l-1.018-.75-1.018.75a0.949,0.949,0,0,1-1.457-1.07l0.389-1.2-1.018-.74a0.971,0.971,0,0,1-.344-1.07,0.953,0.953,0,0,1,.9-0.66h1.259l0.389-1.2a0.944,0.944,0,0,1,1.8,0l0.389,1.2H835.7a0.953,0.953,0,0,1,.9.66,0.971,0.971,0,0,1-.344,1.07l-1.018.74,0.389,1.2a0.961,0.961,0,0,1-.344,1.07A0.949,0.949,0,0,1,834.726,3017.96Zm-1.574-3.05h0.056a0.645,0.645,0,0,1,.036-0.11,0.457,0.457,0,0,1-.092-0.07,0.487,0.487,0,0,1-.092.07,0.648,0.648,0,0,1,.035.11h0.057Zm4.224,11.3a0.951,0.951,0,0,1-.557-0.18l-1.017-.75-1.018.75a0.95,0.95,0,0,1-1.113,0,0.964,0.964,0,0,1-.344-1.07l0.389-1.2-1.018-.75a0.952,0.952,0,0,1,.556-1.72h1.258l0.389-1.2a0.944,0.944,0,0,1,1.8,0l0.389,1.2h1.259a0.952,0.952,0,0,1,.556,1.72l-1.019.75,0.389,1.2a0.963,0.963,0,0,1-.344,1.07A0.946,0.946,0,0,1,837.376,3026.21Zm-1.574-3.06a0.11,0.11,0,0,1,.056.01,0.753,0.753,0,0,1,.035-0.11c-0.032-.02-0.062-0.05-0.091-0.07-0.03.02-.06,0.05-0.092,0.07a0.753,0.753,0,0,1,.035.11A0.111,0.111,0,0,1,835.8,3023.15Zm4.147,8.75a0.948,0.948,0,0,1-.556-0.18,0.959,0.959,0,0,1-.344-1.07l0.389-1.2-1.018-.75a0.952,0.952,0,0,1,.556-1.72h1.259l0.389-1.2a0.944,0.944,0,0,1,1.8,0l0.389,1.2h1.259a0.952,0.952,0,0,1,.556,1.72l-1.018.75,0.389,1.2a0.949,0.949,0,0,1-1.457,1.07l-1.018-.75-1.018.75A0.951,0.951,0,0,1,839.949,3031.9Zm1.483-3.16a0.753,0.753,0,0,1,.035.11,0.22,0.22,0,0,1,.114,0,0.648,0.648,0,0,1,.035-0.11c-0.031-.02-0.062-0.05-0.092-0.07C841.5,3028.69,841.464,3028.72,841.432,3028.74Zm9.89,5.74a0.959,0.959,0,0,1-.556-0.19l-1.018-.74-1.018.74a0.92,0.92,0,0,1-1.113,0,0.951,0.951,0,0,1-.344-1.06l0.389-1.21-1.018-.74a0.952,0.952,0,0,1,.556-1.72h1.259l0.389-1.21a0.948,0.948,0,0,1,1.8,0l0.389,1.21H852.3a0.941,0.941,0,0,1,.9.66,0.951,0.951,0,0,1-.344,1.06l-1.018.74,0.389,1.21A0.962,0.962,0,0,1,851.322,3034.48Zm-1.666-3.17c0.014,0.04.025,0.07,0.035,0.11h0.114c0.01-.04.021-0.07,0.035-0.11l-0.092-.06Z" transform="translate(-829.656 -2994.5)"/>
</svg>
