<svg xmlns="http://www.w3.org/2000/svg" width="1400" height="527.5" viewBox="0 0 1400 527.5">
  <defs>
    <style>
      .cls-1 {
        fill: #efe7be;
        fill-rule: evenodd;
        opacity: 0.2;
      }
    </style>
  </defs>
  <path id="lines" class="cls-1" d="M1364.32,2494.61l-0.77.64-234.19-285.5,0.78-.64ZM1129.49,2209l0.52,0.85L646.652,2504.84l-0.521-.85ZM646.623,2504.86l-0.463-.89,490.85-258.55,0.46,0.89Zm489.817-258.1,0.6-.79,270.14,204.14-0.6.79Zm270.05,204.23-0.22-.97,792.45-181.68,0.22,0.97Zm-42.38,44.41-0.34-.94,835.89-307.96,0.34,0.94Zm-717.522,9.05-0.393.92L7.044,2232.35l0.393-.92Zm0.41-.03-0.214.98L-94.731,2342.68l0.214-.97ZM-94.994,2341.36l0.739,0.67L-426.813,2705.9l-0.739-.67Zm-331.869,364.32-0.639.76-372.5-223.6,0.638-.77ZM-798.916,2482.4l0.454-.89,445.908,231.59-0.454.89Zm446.036,231.45-0.8-.6L6.84,2231.09l0.8,0.6Z" transform="translate(0 -2186.5)"/>
</svg>
