<svg xmlns="http://www.w3.org/2000/svg" style="display:none;"><defs><style>.cls-1{fill:#fff;fill-rule:evenodd}</style><style>.cls-1{fill:#2cccd3;fill-rule:evenodd}</style><style>.cls-1{fill:#2cccd3;fill-rule:evenodd}</style><style>.cls-1{fill:#becdce;fill-rule:evenodd}</style><style>.cls-1{fill:#fff;fill-rule:evenodd}</style><style>.cls-1{fill:#fff;fill-rule:evenodd}</style><style>.cls-1{fill:#fff;fill-rule:evenodd}</style><style>.cls-1{fill:#fff;fill-rule:evenodd}</style><style>.cls-1{fill:#e35205;fill-rule:evenodd}</style></defs><symbol viewBox="0 0 22 40" id="icon-arrow-right"><title>arrow-right</title><path id="arrow-right-arrow_-_from_bottom" data-name="arrow - from bottom" class="cls-1" d="M991.839 1870.85a2.775 2.775 0 0 1 4.064 0l16.257 17.01a3.108 3.108 0 0 1 0 4.25 2.8 2.8 0 0 1-4.07 0l-16.251-17.01a3.1 3.1 0 0 1 0-4.25zm0 34.02l16.251-17.01a2.782 2.782 0 0 1 4.07 0 3.108 3.108 0 0 1 0 4.25l-16.26 17.01a2.791 2.791 0 0 1-4.064 0 3.1 3.1 0 0 1 .003-4.25z" transform="translate(-991 -1870)"/></symbol><symbol viewBox="0 0 130 150.03" id="icon-chinese-lantern"><title>chinese-lantern</title><path id="chinese-lantern-icon" class="cls-1" d="M1452.71 3124.84a10.866 10.866 0 0 0 .04-9.78c-2.61-4.93-8.29-4.09-12.96-4.09-3.7 0-3.7 5.77 0 5.77h4.02c1.25 0 3.08-.35 3.84.95a7.438 7.438 0 0 1 .19 4.36 2.132 2.132 0 0 1-2.21 1.42c-5.32.42-10.85 0-16.18 0h-19.47c-1.32 0-3.63.42-4.44-.96a7.358 7.358 0 0 1-.19-4.36c.41-1.27 1.45-1.39 2.55-1.41 6.23-.14 12.47 0 18.69 0a2.929 2.929 0 0 0 2.88-2.89v-16.15c0-3.72-5.75-3.72-5.75 0v13.25c-5.43-.04-10.87-.16-16.29.02a7.9 7.9 0 0 0-6.28 3.01c-1.64 2.13-1.68 4.63-1.62 7.2a8.755 8.755 0 0 0 .87 3.69c-18.97 6.62-36.48 21.35-38.61 42.47-2.01 19.91 11.81 36.96 28.62 45.67a76.411 76.411 0 0 0 18.95 6.74 8.31 8.31 0 0 0-1.23 4.36c-.06 2.3-.07 4.63 1.22 6.65a7.83 7.83 0 0 0 6.23 3.53v5.9c0 3.72 5.74 3.72 5.74 0v-5.87c.81-.02 1.61-.04 2.41-.05 0 .09-.01.17-.01.26v7.59c0 3.71 5.75 3.72 5.75 0v-7.59a3.028 3.028 0 0 0-.02-.31c.81 0 1.61-.01 2.41-.01v5.98c0 3.72 5.75 3.72 5.75 0v-8.88a2.92 2.92 0 0 0-2.87-2.89l-9 .06c-3.2.02-6.67.44-9.85.07-2.27-.26-2.07-2.28-2.02-4.06s.78-2.62 2.55-2.67c3.39-.1 6.79 0 10.17 0a2.9 2.9 0 0 0 1.19-.24 79.3 79.3 0 0 0 28.25-5.52c17.83-7.12 33.87-21.96 35.44-42.13 1.87-23.97-17.87-41.77-38.76-49.09zm-15.43 4.52c12.37 7.39 17.97 23.09 18.92 36.83 1.01 14.51-2.36 30.91-12.76 41.66-3.92 4.05-9 7.21-14.7 7.81a22.078 22.078 0 0 1-15.7-4.82c-11.3-8.75-15.9-24.46-16.21-38.22-.36-15.71 4.82-34.86 19.22-43.34 4.23-.01 8.46-.05 12.69-.05 2.82 0 5.68.09 8.54.13zm-69.79 44.86c-1.94-22.62 17.69-38.79 37.4-44.76a3.362 3.362 0 0 0 .91-.45q.435.09.9.15c-9.86 9.32-14.55 23.8-15.47 37.04-1.13 16.32 3.2 34.87 15.28 46.56.18.17.36.33.54.5q-3.615-.96-7.1-2.27c-15.66-5.91-30.94-19.04-32.46-36.77zm92.09 33.95a67.464 67.464 0 0 1-13.55 5.16c10.8-9.94 15.58-25.56 16.05-39.92.51-15.38-3.97-33.32-15.54-44.22a7.728 7.728 0 0 0 .86-.13 3.017 3.017 0 0 0 .79.36c17.59 5.3 35.85 18.71 37.51 38.53 1.51 17.91-11.01 32.5-26.12 40.22z" transform="translate(-1361.59 -3094.91)"/></symbol><symbol viewBox="0 0 152 150" id="icon-crown"><title>crown</title><path id="crown-icon" class="cls-1" d="M1251.95 2278.5a3.118 3.118 0 0 0 .05-.69 3.029 3.029 0 0 0-.05-.69 11.29 11.29 0 0 0-22.56.69 10.966 10.966 0 0 0 1.07 4.73q-12.36 16.005-24.71 32.02c-.29.36-.57.73-.85 1.09q-11.79-19.17-23.57-38.34c-.54-.88-1.09-1.77-1.63-2.65a11.737 11.737 0 0 0 6.7-9.65 3.118 3.118 0 0 0 .05-.69 3.029 3.029 0 0 0-.05-.69 11.295 11.295 0 1 0-15.89 10.97q-12.6 19.455-25.2 38.9c-.52.8-1.04 1.59-1.55 2.39q-10.14-14.595-20.27-29.2c-.79-1.14-1.59-2.29-2.39-3.43a12.149 12.149 0 0 0 1.47-4.76 3.118 3.118 0 0 0 .05-.69 3.029 3.029 0 0 0-.05-.69 11.3 11.3 0 1 0-11.57 12q4.68 34.23 9.38 68.47.675 4.995 1.37 10a2.874 2.874 0 0 0 2.77 2.12h97.26v27.52h-82.47c-3.71 0-3.72 5.77 0 5.77h85.35a2.929 2.929 0 0 0 2.89-2.88v-33.3a2.922 2.922 0 0 0-2.89-2.88h-97.65q-4.665-34.14-9.35-68.27-.54-3.93-1.08-7.88c.17-.09.32-.18.48-.28l21.06 30.33q1.62 2.34 3.24 4.67a2.915 2.915 0 0 0 4.97 0q13.68-21.105 27.35-42.21c.47-.72.93-1.44 1.4-2.15q11.67 18.99 23.35 37.98c1.23 2.01 2.47 4.02 3.7 6.02 1.24 2.02 3.68 1.69 4.98 0l24.93-32.31c.73-.94 1.45-1.88 2.18-2.82a10.506 10.506 0 0 0 1.58.95q-3.525 31.845-7.04 63.69-.51 4.665-1.03 9.32c-.4 3.69 5.36 3.66 5.77 0q3.615-32.835 7.25-65.68.345-3.09.69-6.2a11.47 11.47 0 0 0 10.51-10.6zm-146.19-.69c0-7.14 10.82-7.18 11.09 0-.27 7.17-11.09 7.14-11.09 0zm74.92-13.49c-.27 7.17-11.08 7.14-11.08 0s10.81-7.19 11.08 0zm54.47 13.49c0-7.14 10.81-7.18 11.09 0-.28 7.17-11.09 7.14-11.09 0zm-52.45 105a7.683 7.683 0 1 0 0 2.12 4.387 4.387 0 0 0 0-2.12zm-9.48 1.06c0-2.5 3.71-2.47 3.84 0-.13 2.47-3.84 2.49-3.84 0zm-19.34-1.06a7.718 7.718 0 1 0-.01 2.12 4.557 4.557 0 0 0 .01-2.12zm-9.48 1.06c0-2.5 3.71-2.47 3.84 0-.13 2.47-3.84 2.49-3.84 0zm67.12-1.06a7.683 7.683 0 1 0 0 2.12 4.387 4.387 0 0 0 0-2.12zm-9.48 1.06c0-2.5 3.71-2.47 3.85 0-.14 2.47-3.85 2.49-3.85 0z" transform="translate(-1100 -2253)"/></symbol><symbol viewBox="0 0 10.624 7.09" id="icon-down-arrow"><title>down-arrow</title><path id="down-arrow-arrow" class="cls-1" d="M456.2 1973l1.768-1.77 5.3 5.31-1.768 1.76zm3.535 3.54l5.3-5.31 1.765 1.77-5.3 5.3z" transform="translate(-456.188 -1971.22)"/></symbol><symbol viewBox="0 0 800 600" id="icon-hamburger"><title>hamburger</title><path d="M300 220h240c200 0 100 320-20 200L300 200" stroke-width="3"/><path d="M300 320h240" stroke-width="3"/><path d="M300 428h240c200 0 100-320-20-200L300 448" stroke-width="3"/></symbol><symbol viewBox="0 0 333 300" id="icon-hand-shake"><title>hand-shake</title><path id="hand-shake-icon" class="cls-1" d="M628.187 1475.38c43.09-17.46 93.132.5 114.1 42.5 17.182 34.41 9.254 76.11-17.547 103.08q-50.433 50.745-101.055 101.3c-4.424 4.44-8.99 8.77-13.292 13.33-2.073 2.2-3.845 4.77-6.3 6.57a17.5 17.5 0 0 1-15.841 2.4c-12.239-4.21-15.279-19.62-6.669-28.79 5.08-5.4-3.048-13.58-8.142-8.16-8.42 8.96-10.855 21.77-5.581 33.02a28.959 28.959 0 0 0 28.62 16.23c11.688-1.17 18.039-9.08 25.647-16.71q27.99-28.05 55.979-56.12 26.6-26.655 53.2-53.33c10.814-10.84 19.468-23.08 25.039-37.44a100.812 100.812 0 0 0 1.587-67.43c-15.895-47.87-65.972-76.75-115.234-66.91a97.234 97.234 0 0 0-17.575 5.33c-6.782 2.75-3.819 13.92 3.062 11.13zm-87.457 199.44c-6.9 6.52-17.683 6.85-24.545 0s-6.485-17.71 0-24.61c5.079-5.4-3.049-13.58-8.143-8.16-10.759 11.45-11.34 29.56 0 40.93s29.408 10.79 40.831 0c5.406-5.1-2.748-13.26-8.143-8.16zm79.183-79.38c-25.983 26.05-52.088 51.98-77.951 78.14-9.667 9.78-12.989 24.38-5.55 36.64 9.794 16.15 31.865 18.23 45.217 5.46 12.582-12.03 24.627-24.69 36.923-37.01l42.4-42.51c5.247-5.26-2.893-13.42-8.142-8.16q-37.992 38.085-75.981 76.17c-6.1 6.11-13.277 11.02-22.4 7.21a17.612 17.612 0 0 1-9.911-21.08 20.611 20.611 0 0 1 5.583-8.56c13.071-13.2 26.248-26.31 39.371-39.46q19.29-19.35 38.579-38.68c5.247-5.26-2.893-13.42-8.142-8.16zm-169.36 1.17c-18.98-38.99-6.7-87.73 29.139-112.41 33.559-23.1 79.986-20.34 110.141 7.33 14.436 13.24 27.5 28 41.7 41.49 15.343 14.57 2.227 41.04-18.521 38.23-9.624-1.31-15.982-9.63-22.434-16.1l-50.7-50.82v8.16c3.125-3.86 7.988-7.86 13.163-7.96 4.314-.1 9.117 3.22 10.744 7.23 1.309 3.22-.189 6.6-1.912 9.35a34.015 34.015 0 0 1-5.922 6.82c-.823.75-1.678 1.47-2.541 2.18 1.97-1.63-1.127.92-.826.64-1.736 1.63-3.371 3.38-5.051 5.06q-28.242 28.32-56.485 56.63c-4.8 4.81-9.751 9.45-14.068 14.7-6.374 7.76-11.148 15.29-9.923 25.82a29.2 29.2 0 0 0 19.974 24.33c10.25 3.31 21.416.21 29.088-7.16 1.342-1.28 2.616-2.65 3.921-3.98q12.243-12.435 24.486-24.88l51.576-52.41c5.21-5.3-2.928-13.47-8.143-8.17q-22.171 22.53-44.344 45.07-13.622 13.83-27.241 27.68c-6.324 6.42-12.472 14.72-22.647 13.55a17.577 17.577 0 0 1-14.655-22.29c1.466-4.88 5.654-9.3 9.074-13.03 5.809-6.34 12.2-12.23 18.272-18.32 17.654-17.69 35.671-35.1 52.994-53.12.478-.5 2.583-2.56.217-.47 2.033-1.8 4.2-3.33 6.121-5.27 6.135-6.21 11.5-14.76 9.646-23.86-2.309-11.34-14.874-19.24-26-17.26-6.75 1.21-13.367 5.65-17.662 10.96-1.959 2.42-2.386 5.77 0 8.16q25.089 25.155 50.179 50.3c7.862 7.89 15.285 16.91 26.745 19.35 23.344 4.95 44.744-15.55 40.607-39.18-2.289-13.07-13.232-21.57-22.1-30.47-8.624-8.64-17.2-17.33-25.871-25.93-30.951-30.71-78.7-38.46-117.5-18.29a101.179 101.179 0 0 0-49.12 58.58c-7.974 24.96-5.482 52.13 5.932 75.58 3.25 6.68 13.184.83 9.944-5.82z" transform="translate(-430 -1457)"/></symbol><symbol viewBox="0 0 149.97 150" id="icon-jigsaw"><title>jigsaw</title><path id="jigsaw-icon" class="cls-1" d="M2116.35 1660.87a.757.757 0 0 1 .01-.15c-1.89.26-3.77.51-5.66.77 1.09 4.58 2.03 9.21 2.85 13.85 1.13 6.45 2.16 13.31 1.02 19.85-.37 2.15-.97 5.01-3.61 5.02-2.8.02-5.81-1.89-8.44-2.78-4.78-1.62-10.42-2.91-15.33-1.09-6.18 2.3-8.42 8.59-8.95 14.68-.57 6.42.01 14.8 5.41 19.22 4.31 3.53 10.13 3.27 15.25 2.01a57.01 57.01 0 0 0 7.53-2.55c2.05-.83 5.25-2.45 6.87-.13 1.84 2.63 1.65 6.86 1.68 9.91a64.9 64.9 0 0 1-.93 10.77c-.89 5.65-2.03 11.29-3.35 16.86a2.926 2.926 0 0 0 2.01 3.55c11.21 2.66 23.35 5.6 34.93 4.14 3.05-.38 6.34-1.12 8.64-3.33 2.49-2.41 2.83-5.87 2.03-9.09-1.31-5.32-4.37-10.01-4.31-15.69.06-5.65 4.62-7.84 9.78-8.29 4.98-.44 13.8-.62 15.87 5.25 1.59 4.5-.57 10.05-2.19 14.24-1.19 3.11-2.62 6.23-1.85 9.64.71 3.14 3.22 5.15 6.11 6.23 7.03 2.61 15.61 1.38 22.81.25 5.66-.89 11.3-2.03 16.87-3.35a2.849 2.849 0 0 0 2.01-2.02c2.66-11.21 5.6-23.35 4.14-34.92-.38-3.06-1.11-6.35-3.33-8.64-2.4-2.49-5.87-2.83-9.09-2.03-5.32 1.31-10.01 4.38-15.68 4.32-5.65-.07-7.84-4.63-8.29-9.79-.44-4.98-.62-13.8 5.25-15.87 4.49-1.59 10.04.57 14.24 2.19 3.11 1.2 6.22 2.62 9.64 1.85 3.13-.71 5.15-3.22 6.22-6.11 2.61-7.03 1.38-15.61.25-22.81-.89-5.66-2.03-11.3-3.35-16.87a2.928 2.928 0 0 0-3.54-2.01c-8.96 2.12-18.39 4.39-27.63 4.28-2.96-.03-11.41.4-11.09-4.29.17-2.45 1.59-4.84 2.41-7.13a39.823 39.823 0 0 0 1.85-6.59c.76-4.19.78-8.8-1.73-12.45-3.22-4.67-9.03-6.07-14.38-6.38-5.73-.33-12.47.24-16.97 4.22-3.32 2.94-4.39 7.47-4.01 11.75a34.881 34.881 0 0 0 1.59 7.55c.84 2.63 2.2 5.15 2.85 7.83 1.49 6.16-8.27 5.49-12.05 5.5-3.71.01-3.72 5.77 0 5.76 5.07-.01 11.87.1 15.71-3.84 4.29-4.41 1.44-10.06-.3-14.89-1.32-3.64-2.77-7.99-1.9-11.88 1.02-4.53 5.76-5.87 9.9-6.19 4.57-.35 11.81-.52 14.79 3.79 2.14 3.09 1.15 7.55.2 10.9-1.33 4.7-4.87 9.89-3.39 14.9 1.63 5.55 8.02 6.73 13.01 7.08 10.91.76 22.11-1.86 32.67-4.37l-3.54-2.01c1.08 4.58 2.03 9.21 2.84 13.85 1.13 6.46 2.16 13.31 1.03 19.85-.37 2.15-.97 5.01-3.61 5.02-2.8.02-5.81-1.89-8.44-2.78-4.78-1.62-10.42-2.91-15.33-1.09-6.18 2.3-8.42 8.59-8.95 14.68-.56 6.42.01 14.8 5.41 19.22 4.31 3.53 10.13 3.27 15.25 2.01a57.01 57.01 0 0 0 7.53-2.55c2.05-.83 5.26-2.45 6.87-.13 1.84 2.63 1.64 6.86 1.68 9.91a64.914 64.914 0 0 1-.94 10.77c-.89 5.65-2.02 11.29-3.34 16.86l2.01-2.01a241.05 241.05 0 0 1-13.85 2.85c-6.45 1.13-13.31 2.16-19.85 1.02-2.15-.37-5.01-.97-5.02-3.61-.01-2.79 1.89-5.81 2.78-8.43 1.62-4.78 2.91-10.43 1.09-15.34-2.29-6.18-8.59-8.42-14.68-8.96-6.42-.56-14.8.01-19.21 5.42-3.53 4.31-3.27 10.13-2.01 15.25a55.678 55.678 0 0 0 2.54 7.54c.83 2.05 2.45 5.25.13 6.87-2.64 1.83-6.86 1.64-9.91 1.68a64.82 64.82 0 0 1-10.77-.94c-5.66-.89-11.29-2.02-16.87-3.35.67 1.18 1.34 2.36 2.02 3.54 2.66-11.21 5.6-23.35 4.14-34.92-.39-3.06-1.12-6.35-3.34-8.64-2.4-2.49-5.87-2.83-9.09-2.03-5.32 1.31-10.01 4.38-15.68 4.32-5.65-.07-7.84-4.63-8.29-9.79-.44-4.98-.62-13.8 5.25-15.87 4.49-1.59 10.04.57 14.24 2.19 3.1 1.2 6.22 2.62 9.64 1.85 3.13-.71 5.15-3.22 6.23-6.11 2.61-7.03 1.38-15.61.25-22.81-.89-5.66-2.03-11.3-3.35-16.87-.8-3.33-5.41-2.32-5.66.76-.01.05-.01.1-.02.15-.3 3.7 5.46 3.68 5.77 0z" transform="translate(-2078.09 -1625.31)"/></symbol><symbol viewBox="0 0 338 140.032" id="icon-logo"><title>logo</title><path id="logo-logo" class="cls-1" d="M305.311 140.912a2.56 2.56 0 0 1-2.253-2.553l-.2-6.982.013.008c-.478-11.511-.792-23.027-1.113-34.543q-10.842 40.191-21.081 80.523c0 .009-.007.018-.01.027a3.45 3.45 0 0 1-4.235 2.96 4.259 4.259 0 0 1-3.475-4.382h.01c-.557-9.736-1.125-19.476-1.512-29.22q-1.595-40.179-1.906-80.382l-2.628 8.087c-6.2 19-12.5 37.962-18.724 56.95l-6.648 18.686a3.981 3.981 0 0 1-.153.431l-.061.171-.031.036a2.8 2.8 0 0 1-1.127 1.276l-6.286 1.673a207.774 207.774 0 0 1-28.5 5.922 6.24 6.24 0 0 1-4.577-1.461c-.939-.919-.7-1.829.634-2.012 11.262-1.542 22.593-5.715 33.507-8.83l7.23-21.388c9.276-28.215 18.377-56.225 27.277-84.564.682-2.17 7.414-.116 7.428 1.894q.1 14.813.347 29.623.672 39.59 2.19 79.166c7.467-27.663 14.321-55.485 21.451-83.238.592-2.3 7.661-.1 7.762 1.979.978 20.069 1.227 40.162 2.04 60.238 5.049-1.211 10.078-1.7 15.111-2.977 1.858-.471 4.009-.728 5.6.289.809.515 2.064.315.392 1.247-7.887 4.4-14.365 7.94-21.407 10.209.005.002-4.076 1.278-5.065 1.137zm50.653-1.976c-2.237 0-4.543-1.939-5.737-4.825-1.882-4.548 3.045-22.29 9.061-29.391 1.617-1.909 3.367-2.877 5.2-2.877 3.1 0 5.527 2.781 5.791 3.095 4.476 8.655-2.581 19.749-7.252 27.094-.72 1.131-1.4 2.2-1.951 3.128-1.466 2.471-3.233 3.776-5.11 3.776zm9.578-29.8c-1.318 0-2.938 3.4-3.4 4.445-1.028 2.168-4.331 9.379-3.48 10.737a.7.7 0 0 0 .615.339 1.428 1.428 0 0 0 .725-.248c3.647-2.2 7.368-10.811 6.643-13.984-.198-.857-.568-1.29-1.103-1.29zm14.793 25.931c-3.816 0-6.764-2.65-9.015-8.1-6.126-14.841 9.132-50.135 10.36-52.927a4 4 0 0 1 .909-.1 5.932 5.932 0 0 1 2.531.607c1.887.89 2.991 1.856 1.2 6.967-1.87 5.34-8.905 30.851-8.114 43.912.258 4.268 2.257 5.164 3.888 5.164 3 0 10.241-4.2 11.75-5.472l.54 2.174c-.727.108-3.374 3.4-6.567 5.361a14.929 14.929 0 0 1-7.482 2.413zm51.922-3.01a.629.629 0 0 1-.3-.09c-4.774-2.7-4.566-11.359-4.467-15.521.013-.528.024-.99.024-1.368a7.721 7.721 0 0 0-1.528-4.405 4.042 4.042 0 0 1-.943-2.441l.007-.089c.157-2.044.294-2.7 1.332-2.7a3.709 3.709 0 0 1 .707.08.633.633 0 0 0 .123.012c1.588 0 3.4-7.388 7.758-31.622.756-4.2 1.353-7.525 1.72-9.2.471-2.154 1.293-3.247 2.443-3.247 1.438 0 2.943 1.591 2.959 1.607.041.04 2.162 2.132.932 8.068-.257 1.237-.687 3.153-1.185 5.372-3.332 14.842-4.962 23.106-4.038 24.27a.608.608 0 0 0 .482.241c1.628-.024 14.278-2.065 17.416-2.575l-1.124 6.118c-1.388.567-12.161 4.909-16.981 7.729-5.448 3.188-5.265 13.209-4.366 15.442a4.9 4.9 0 0 1-.358 3.878.859.859 0 0 1-.613.44zm41.491-31.644c6.408 1.936 5.8 7.224 5.264 11.889-.069.6-.135 1.174-.182 1.72-.077.889-.175 1.732-.269 2.548-.407 3.513-.729 6.288 1.568 6.919a2.905 2.905 0 0 0 .759.094 15.52 15.52 0 0 0 6.686-1.929v.612c0 .051 1.6-.129.338 1.97-1.755 2.921-4.859 6.115-7.727 6.5-.177 0-.36-.006-.546-.017-3.395-.2-5.927-2.456-7.526-6.7a29.182 29.182 0 0 1-1.6-10.567 2.815 2.815 0 0 0-.445-2.046.917.917 0 0 0-.677-.289c-1.993 0-5.626 6.3-6.654 8.477-1.622 3.43-5.879 10.512-8.681 10.512-1.6 0-2.331-2.689-2.657-4.945-1.717-11.867 8.032-43.717 11.583-53.939 1-2.889 2.366-4.481 3.836-4.481a1.912 1.912 0 0 1 .875.205c3.6 2.8 2.133 8.719 2.118 8.779l-11.543 36.946-.051.077c.048-.051 5.543-5.216 9.344-9.671 2.1-2.455 3.788-2.913 4.9-2.971a5.76 5.76 0 0 1 1.287.306zm64.494-2.9c-.058.794-.975 1.713-2.469 2.525a1.8 1.8 0 0 1-.824.258c-.932 0-1.049-1.6-1.05-1.618v-.077l-.033-.071a1.482 1.482 0 0 0-1.367-1c-3.666 0-11.277 14.905-13.552 20.57-2.349 5.85-1.925 8.62-1.619 9.564a3.012 3.012 0 0 1-1.306.284 4.747 4.747 0 0 1-2.392-.735c-2.575-1.514-3.329-4.826-2.07-9.084 1.305-4.412 2.71-25.373 2.769-26.264 0-.72.218-2.7 1.175-2.7a2.624 2.624 0 0 1 1.566.843c2.9 2.553 2.55 7.571 2.451 8.552l-.015.145c.359-1.385 6.227-6.367 10.047-6.367a5.029 5.029 0 0 1 .721.066s8.293.604 7.968 5.104zm-192.156 12.763c-.916 5.2-11.911 18.137-12.027 18.267l-.2.228.161.26c1.289 2.082 3.436 3.137 6.384 3.137 3.712 0 7.711-1.67 9.568-2.555l-.051 2.027c-2.1 3.258-6.479 6.862-11.97 6.866a12.894 12.894 0 0 1-9.4-4.141c-2.879-2.956-3.582-7.791-2.088-14.373a56.468 56.468 0 0 1 4.685-12.489c1.83-3.517 6.393-8.39 10.2-8.39 0 0 6.652.309 4.738 11.163zm-6.5-2.979c-1.318 0-2.938 3.4-3.4 4.445-1.028 2.169-4.331 9.379-3.48 10.738a.7.7 0 0 0 .615.338 1.438 1.438 0 0 0 .725-.247c3.647-2.2 7.368-10.812 6.643-13.985-.203-.855-.573-1.286-1.108-1.286zM506.3 101.5c-.916 5.2-11.911 18.136-12.026 18.266l-.2.228.16.261c1.289 2.081 3.436 3.136 6.384 3.136 3.713 0 7.711-1.67 9.568-2.555l-1.63 3.532a12.5 12.5 0 0 1-10.391 5.361 12.893 12.893 0 0 1-9.4-4.141c-2.88-2.955-3.582-7.791-2.089-14.372a56.437 56.437 0 0 1 4.685-12.489c1.83-3.517 6.393-8.39 10.2-8.39-.003 0 6.647.308 4.739 11.163zm-6.5-2.98c-1.318 0-2.938 3.4-3.4 4.446-1.028 2.168-4.331 9.378-3.479 10.737a.7.7 0 0 0 .615.339 1.434 1.434 0 0 0 .725-.248c3.646-2.2 7.367-10.812 6.642-13.985-.203-.855-.577-1.289-1.112-1.289zm-89.017-16.746s-4.723 14.267-5.195 15.762 4.116.34 4.116.34 4.858-1.053 10.055-2.051c3.94-.757 4.115 1.253 4.115 1.253.861 3.261-2.969 5.622-2.969 5.622-4.791 1.97-14.643 5.095-16.734 5.231a1.956 1.956 0 0 0-2.092 1.834s-4.656 17.392.019 18.577 11.924-3.155 13.274-4.174 3.306-2.921 3.576.34-3.778 7.609-7.895 9.658-8.5 1.28-12.821-1.777-7.557-9.376-6.478-18.14 8.165-28.738 9.11-30.979-.166-2.735-.166-2.735c-1.987-1.308-2.871-3.584-3.68-5.826a1.584 1.584 0 0 1 1.441-2.346s5.982-1.459 7.264-1.8 1.349-1.563 1.889-2.649.877-1.223 2.6-1.282 3.171 2.536 3.171 2.536a2.057 2.057 0 0 0 1.178.048s16.151-1.095 16.372 3.137c.134 2.552-3.344 3.718-6.108 3.93s-12.529 1.088-13.538 4.041z" transform="translate(-200.25 -40.406)"/></symbol><symbol viewBox="0 0 121 150" id="icon-partners"><title>partners</title><path id="partners-icon" class="cls-1" d="M2149.6 1071.44v50.29c1.8-.75 3.59-1.49 5.38-2.24l-16.32-18.51a3.148 3.148 0 0 0-4.46 0q-7.455 9.255-14.93 18.51c1.8.75 3.59 1.49 5.38 2.24v-49.63a3.213 3.213 0 0 0-2.31-3.05c-6.69-1.36-14.79-.76-20.14 3.86-5.57 4.79-5.29 12.02-5.29 18.7V1148c0 5.29-.31 10.32 1.14 15.47 2.45 8.73 11.74 11.51 19.8 11.51h49.14c15.6 0 31.24.33 46.83 0 .27-.01.54 0 .81 0a3.206 3.206 0 0 0 3.15-3.17V1055.2a3.2 3.2 0 0 0-3.15-3.16h-92.28c-3.71 0-7.77.48-11.46-.08-6.43-.97-8.47-7.33-7.59-13.04.71-4.62 4.9-7.4 9.32-7.44 14.65-.13 29.31 0 43.96 0h29.32c5.56 0 11.28.41 16.83 0 .27-.02.55 0 .82 0-1.05-1.05-2.1-2.11-3.16-3.16v13.76q1.59-1.575 3.16-3.16h-74.2c-4.05 0-4.06 6.33 0 6.33h74.2a3.206 3.206 0 0 0 3.15-3.17v-13.76a3.213 3.213 0 0 0-3.15-3.17h-41.73c-16.22 0-32.44-.05-48.66 0a16.621 16.621 0 0 0-10.98 3.74c-4.96 4.16-6.18 11.26-4.96 17.39 1.42 7.15 7.96 11.92 15.02 12.09 1.16.03 2.33 0 3.49 0h81.6c5.43 0 11.11.48 16.52 0 .26-.02.52 0 .78 0-1.05-1.06-2.1-2.11-3.15-3.17v116.61q1.575-1.575 3.15-3.16h-91.27c-3.56 0-7.27.29-10.78-.46-3.39-.73-6.59-2.13-8.1-5.5a31.109 31.109 0 0 1-1.35-5.6c.3 1.27.07.34.08-.34.02-.96 0-1.92 0-2.88v-53.85c0-4.76-.1-9.54.01-14.31.1-4.46 1.92-8.24 6.23-9.86 3.21-1.21 6.55-1.18 10-.88.37.03.81.11.13.01a1.894 1.894 0 0 0 .56.08 1.409 1.409 0 0 1 .52.1l-2.31-3.06v49.63c0 2.53 3.59 4.45 5.38 2.23q7.47-9.255 14.93-18.51h-4.46q8.175 9.255 16.33 18.51c1.85 2.1 5.38.4 5.38-2.23v-50.29c0-4.07-6.31-4.07-6.31 0z" transform="translate(-2096.78 -1025.12)"/></symbol><symbol viewBox="0 0 157 150" id="icon-star"><title>star</title><path id="star-icon" class="cls-1" d="M2351.17 3382.47a17.833 17.833 0 0 0-1.76-31.23c-12-5.59-27.05 4.02-25.4 17.68.68 5.62 4.87 9.91 6.85 15.08a119.363 119.363 0 0 1 4.41 14.96c1.16 4.83 2.18 9.71 3.1 14.6a65.354 65.354 0 0 0 1.27 7.27c.91 2.9 6.34 5.06 8.89 6.22a77.5 77.5 0 0 0 15 4.86 132.667 132.667 0 0 0 22.17 3.11c5.1.25 6.42-3.39 7.33-7.47a128.745 128.745 0 0 0 3-34.67c-.35-6.87-1.02-15.64-6.63-20.46a10.918 10.918 0 0 0-13.64-.22 10.549 10.549 0 0 0-2.51 12.8c2.1 4.04 7.79 7.17 12.3 5.74 3.68-1.16 5.77-4.78 6.99-8.2a15.323 15.323 0 0 0 .62-2.13c-.44.58-.88 1.15-1.33 1.73 10.44-6.67 18.25-16.85 24.04-27.67a59.461 59.461 0 0 0 4.09-8.7c1.35-4.03-1.39-6.4-4.44-8.22a143.711 143.711 0 0 0-14.75-7.74 124.26 124.26 0 0 0-18.02-6.24c-7.08-1.98-15.46-4.2-22.51-.95-4.59 2.12-6.92 7.08-6.5 12.04a9.42 9.42 0 0 0 7.7 8.49 10.538 10.538 0 0 0 10.21-3.06c3.53-3.51 3.43-8.5 1.55-12.81a19.876 19.876 0 0 0-1.96-3.52c-.08-.1-.16-.2-.23-.3 1.53 2.24-.44-.53-.48-.62.17.46.41.74.46.23.16-1.45-1.29-4.02-1.83-5.36a73.187 73.187 0 0 0-10.17-17.24 96.454 96.454 0 0 0-10.03-11.06c-2.56-2.41-5.44-5.52-9.33-3.96-2.88 1.16-5.51 4.33-7.7 6.39a127.887 127.887 0 0 0-13.5 14.71 104.573 104.573 0 0 0-7.43 11.09c-2.45 4.17-4.53 8.91-4.76 13.8-.28 5.7 3.43 11.7 9.41 12.53 3.98.56 8.59-2.15 10.43-5.73 1.13-2.21-.01-5.86-1.09-7.94a9.609 9.609 0 0 0-4.82-4.44c-3.21-1.36-6.96-1.12-10.27-.2-1.57.44-2.92.09-4.68.14a62.686 62.686 0 0 0-11.34 1.41 87.832 87.832 0 0 0-19.32 6.79 58.8 58.8 0 0 0-8.72 4.74c-4.1 2.89-2.34 6.86-.78 10.46a118.686 118.686 0 0 0 17.63 29.19c5 5.95 12.62 15.36 21.57 12.37a10.553 10.553 0 0 0 6.55-14.03c-1.61-3.72-5.69-6.94-9.91-5.84a11.831 11.831 0 0 0-8 7.25c-1.16 3.05-.33 6.26-1.35 9.25a55.886 55.886 0 0 0-2.47 10.92 82.8 82.8 0 0 0-.05 20.45 69.674 69.674 0 0 0 2 11.66c1.16 3.98 4.46 4.71 8.03 4.4a152.179 152.179 0 0 0 15.47-2.14 92.173 92.173 0 0 0 19.98-5.99c3.39-1.49.46-6.47-2.91-4.98a91.966 91.966 0 0 1-21.87 5.99c-2.8.47-5.61.84-8.43 1.14-1.05.11-3.36.76-4.37.37-1.14-.43-1.56-6.35-1.76-7.68a83.023 83.023 0 0 1-.6-20.95 53.269 53.269 0 0 1 2.67-12.03 9.318 9.318 0 0 0 .8-2.6c.03-.9-.23-1.86-.22-2.78a8.544 8.544 0 0 1 .73-3.63 6.217 6.217 0 0 1 1.45-1.87 8.219 8.219 0 0 1 1.08-.69 1.645 1.645 0 0 1 .55-.27 6.936 6.936 0 0 1 1.35-.38.693.693 0 1 1-.13.02c-.81-.11.15.13.21.17.24.19.63.29.89.48 4.56 3.21.38 9.56-4.45 8.25-4.43-1.19-8.09-5.26-10.93-8.66l-.66-.81a1.672 1.672 0 0 1-.19-.25c-.45-.59-.92-1.16-1.41-1.72a72.921 72.921 0 0 1-6.73-9.26 136.975 136.975 0 0 1-9.05-17.16 14.761 14.761 0 0 1-1.46-3.44c-.07-.4-.25-.12-.12-.36a4.787 4.787 0 0 1 1.38-.83 88.915 88.915 0 0 1 15.07-7.09 77.1 77.1 0 0 1 11.54-3.2 53.037 53.037 0 0 1 5.89-.78c2.26-.16 4.56.13 6.8-.03a25.473 25.473 0 0 0 2.96-.71 10.778 10.778 0 0 1 4.17-.14 4.323 4.323 0 0 1 3.49 3.03 11.928 11.928 0 0 0 .41 1.96c.44.66.13-.65.33-.32.07.13-.21.28-.26.35a11.434 11.434 0 0 1-1.13 1.18c-2.09 1.8-4.28 1.53-6.14-.59-1.51-1.72-1.67-4.05-1.32-6.23.7-4.4 2.99-8.4 5.38-12.08a110.422 110.422 0 0 1 11.83-15.5 140.017 140.017 0 0 1 11.8-11.31c.3-.25.59-.52.9-.75-.53.39-.5-.31-.04.36.75 1.1 2.31 2.05 3.28 2.98a88.7 88.7 0 0 1 11.26 12.91 70.3 70.3 0 0 1 5.45 8.99c1.71 3.41 2.69 6.98 3.99 10.54.39 1.06.41.58.14.18.12.18.26.35.37.53.4.62.79 1.24 1.13 1.89a8.256 8.256 0 0 1 1.14 4.76 6.02 6.02 0 0 1-3.69 4.06 4.688 4.688 0 0 1-2.99-.39 3.4 3.4 0 0 1-2.57-2.7 6.786 6.786 0 0 1 1.9-6.04c3.08-2.56 8.37-1.97 12.02-1.38a78.223 78.223 0 0 1 7.99 1.96 115.178 115.178 0 0 1 22.09 8.31q3.93 2.01 7.76 4.23c.57.34 3.21 1.41 3.45 2.09-.02-.03-.78 1.44-.74 1.36-.78 1.73-1.59 3.45-2.47 5.14a85.112 85.112 0 0 1-9.53 14.83 64.022 64.022 0 0 1-7.37 7.72 44.633 44.633 0 0 1-3.98 3.14c-1.25.86-2.51 1.44-3.06 2.94-.83 2.26-1.29 5.45-3.77 6.32-1.37.47-4.12-1.1-5.14-2.44a4.866 4.866 0 0 1-.33-4.85 4.792 4.792 0 0 1 5.51-2.17c1.79.48 2.89 2.04 3.72 3.61 1.83 3.46 2.39 7.7 2.61 11.56a125.432 125.432 0 0 1-2.68 34.83c-.14.63-.3 3.11-.84 3.56-.44.37-4.58-.44-5.44-.53q-3.315-.315-6.62-.78a99.427 99.427 0 0 1-19.86-4.68 40.531 40.531 0 0 1-10.85-5.76l1.33 1.72a232.876 232.876 0 0 0-6.89-31.25 71.272 71.272 0 0 0-3.34-9.06c-1.65-3.6-4.86-6.86-5.29-10.9-.91-8.43 7.99-14.75 15.72-12.3 9.66 3.05 11.11 16.14 2.84 21.64-3.08 2.05-.19 7.05 2.91 4.99z" transform="translate(-2263.31 -3285.03)"/></symbol></svg>