<?xml version="1.0" standalone="no"?>
<!DOCTYPE svg PUBLIC "-//W3C//DTD SVG 20010904//EN"
 "http://www.w3.org/TR/2001/REC-SVG-20010904/DTD/svg10.dtd">
<svg version="1.0" xmlns="http://www.w3.org/2000/svg"
 width="100.000000pt" height="100.000000pt" viewBox="0 0 100.000000 100.000000"
 preserveAspectRatio="xMidYMid meet">
<metadata>
Created by potrace 1.11, written by Peter Selinger 2001-2013
</metadata>
<g transform="translate(0.000000,100.000000) scale(0.100000,-0.100000)"
fill="#000000" stroke="none">
<path d="M164 979 c-61 -23 -111 -69 -137 -129 -16 -35 -20 -69 -22 -157 -1
-62 2 -113 6 -113 4 0 7 50 8 110 1 161 32 222 141 273 43 21 60 22 415 23
209 1 378 -2 388 -8 16 -8 17 -37 17 -385 0 -256 -4 -388 -12 -414 -16 -54
-68 -112 -125 -140 -47 -23 -52 -23 -436 -25 l-387 -2 0 39 c0 21 -4 39 -8 39
-12 0 -7 -69 6 -82 6 -6 157 -8 398 -6 l389 3 50 27 c76 40 111 83 132 163 9
34 9 769 1 788 -8 16 -35 17 -391 16 -351 0 -386 -2 -433 -20z"/>
<path d="M320 796 c-120 -26 -140 -64 -140 -262 0 -150 4 -164 50 -164 46 0
54 13 57 91 1 46 7 75 15 80 7 5 93 9 191 9 164 0 178 -1 197 -20 48 -48 15
-73 -103 -80 -71 -4 -92 -9 -101 -22 -8 -13 -8 -23 0 -35 9 -15 28 -19 100
-21 92 -3 124 -16 124 -52 0 -39 -32 -50 -137 -50 -56 0 -108 -3 -117 -6 -21
-8 -21 -60 0 -68 9 -3 70 -6 137 -6 101 0 128 3 162 20 66 32 84 101 45 166
l-21 33 21 40 c25 50 25 77 0 119 -34 56 -64 62 -304 62 -201 0 -215 1 -210
18 23 71 48 83 176 87 51 2 98 3 105 4 18 2 26 40 13 56 -16 19 -178 19 -260
1z"/>
<path d="M5 515 c-1 -30 2 -55 6 -55 4 0 8 25 8 55 0 30 -4 55 -7 55 -4 0 -7
-25 -7 -55z"/>
<path d="M5 395 c-1 -30 2 -55 6 -55 4 0 8 25 8 55 0 30 -4 55 -7 55 -4 0 -7
-25 -7 -55z"/>
<path d="M5 275 c-1 -30 2 -55 6 -55 4 0 8 25 8 55 0 30 -4 55 -7 55 -4 0 -7
-25 -7 -55z"/>
<path d="M5 155 c-1 -30 2 -55 6 -55 4 0 8 25 8 55 0 30 -4 55 -7 55 -4 0 -7
-25 -7 -55z"/>
</g>
</svg>
