<svg xmlns="http://www.w3.org/2000/svg" viewBox="0 0 66 80"><defs><style>.cls-1{fill:#fff;fill-rule:evenodd}</style></defs><path id="icon" class="cls-1" d="M1131.08 6051.01a1.92 1.92 0 0 1 1.92 1.92v2.14c0 7.8-11.69 13.9-26.61 13.9s-26.62-6.1-26.62-13.9v-.89c-8.03-2.48-12.77-6.88-12.77-11.94v-2.14a1.915 1.915 0 1 1 3.83 0v2.14c0 2.98 3.43 5.96 8.94 7.89v-6.18a1.822 1.822 0 0 1 .14-.7 7.641 7.641 0 0 1-.14-1.44v-.9c-8-2.48-12.77-6.92-12.77-11.94v-2.14a1.915 1.915 0 1 1 3.83 0v2.14c0 2.95 3.46 5.96 8.94 7.89v-6.18a1.916 1.916 0 0 1 .21-.86 8.069 8.069 0 0 1-.21-1.7c0-.16.04-.3.04-.46-8.05-2.47-12.81-6.88-12.81-11.95v-2.14a1.915 1.915 0 1 1 3.83 0v2.14c0 3.19 3.92 6.37 10.1 8.27 1.73-3 5.31-5.53 10.07-7.27-13.65-.66-24-6.5-24-13.83 0-7.8 11.69-13.91 26.61-13.91s26.61 6.11 26.61 13.91a8.323 8.323 0 0 1-.1 1.11 1.986 1.986 0 0 1 .1.6v11.12a1.835 1.835 0 0 1-.06.47c7.74 2.4 12.84 6.8 12.84 11.94 0 7.79-11.69 13.9-26.61 13.9-9.79 0-18.17-2.64-22.79-6.64v6.43c0 4.75 9.36 10.05 22.79 10.05s22.78-5.3 22.78-10.05v-2.14a1.915 1.915 0 1 1 3.83 0v2.14c0 7.8-11.69 13.9-26.61 13.9-9.79 0-18.17-2.64-22.79-6.64v3.26a1.791 1.791 0 0 1 0 .83v1.91c0 5.92 12.01 10.05 22.79 10.05s22.78-4.13 22.78-10.05v-2.14a1.918 1.918 0 0 1 1.91-1.92zm-37.47-58.19c-10.77 0-22.78 4.13-22.78 10.06s12.01 10.05 22.78 10.05 22.78-4.13 22.78-10.05-12-10.06-22.78-10.06zm22.78 17.31a23.681 23.681 0 0 1-7.42 4.15 48.509 48.509 0 0 1 7.42.93v-5.08zm-10 28.04c10.77 0 22.78-4.13 22.78-10.05 0-4.76-9.36-10.06-22.78-10.06s-22.79 5.3-22.79 10.06c0 5.92 12.01 10.05 22.79 10.05z" transform="translate(-1067 -5988.97)"/></svg>