<svg xmlns="http://www.w3.org/2000/svg" viewBox="0 0 45.5 39.97"><path class="cls-1" d="M23.35 39.98c-4.11 0-9.51-.46-13.88-2.43-5.08-2.29-10.72-5.47-9.23-9.72.9-2.57 6.38-10.81 7.01-11.74a1.116 1.116 0 0 1 1.56-.31 1.136 1.136 0 0 1 .3 1.57c-1.64 2.47-6.06 9.29-6.74 11.23-.66 1.88 2.04 4.2 8.02 6.91 7.11 3.2 17.7 2.03 18.76 1.91 3.56-1.11 7.11-5.12 7.15-5.16 6.83-8.57 6.9-11.31 6.95-13.51l.01-.35c.05-1.76-2.01-3.21-2.03-3.23a1.127 1.127 0 0 1 1.26-1.87c.13.09 3.11 2.15 3.01 5.17v.33c-.06 2.54-.13 5.71-7.48 14.91-.2.23-4.1 4.65-8.31 5.9a1.364 1.364 0 0 1-.17.04 51.62 51.62 0 0 1-6.19.35zm6.04-1.47zm-6.76-1.58a32.132 32.132 0 0 1-16.24-4.1l-.1-.06a1.142 1.142 0 0 1-.57-1.37 1.12 1.12 0 0 1 1.42-.72 1.314 1.314 0 0 1 .39.2c2.31 1.37 8.71 4.48 18.25 3.65a1.129 1.129 0 0 1 .19 2.25c-1.15.1-2.27.15-3.34.15zm-2.75-15.25a1.5 1.5 0 0 1-.2-.02 1.132 1.132 0 0 1-.91-1.31c2.48-13.88 9.5-18.46 9.8-18.65a1.121 1.121 0 0 1 1.55.36 1.142 1.142 0 0 1-.35 1.56c-.08.05-6.5 4.34-8.78 17.13a1.134 1.134 0 0 1-1.11.93zm-4.1-.52a1.121 1.121 0 0 1-1.12-1.1c0-.16-.04-3.8 3.25-11.09C21.3 1.43 25.97.08 26.17.02a1.352 1.352 0 0 1 .29-.04 24.334 24.334 0 0 1 3.02.31 3.675 3.675 0 0 1 2.9 1.96c.25.08.4.11.54.15a4.006 4.006 0 0 1 1.1.37 1.132 1.132 0 0 1 .52 1.51 1.118 1.118 0 0 1-1.51.52 1.967 1.967 0 0 0-.58-.19 7.324 7.324 0 0 1-.78-.21l-.47-.13a1.145 1.145 0 0 1-.8-.92 1.341 1.341 0 0 0-1.25-.82c-1.37-.2-2.19-.26-2.52-.28-.69.27-4.06 1.84-6.68 7.65-3.03 6.74-3.04 10.08-3.04 10.12a1.133 1.133 0 0 1-1.11 1.14h-.02zm8.1 10.5a43.528 43.528 0 0 1-7.47-.72c-4.36-.72-8.03-4.67-8.18-4.84a1.1 1.1 0 0 1-.24-.42 22.42 22.42 0 0 1-1.08-5.43l-.01-.44c-.03-2.13-.08-5.68 3.95-11.33A14.521 14.521 0 0 1 14.06 5a1.122 1.122 0 0 1 1.58.22 1.143 1.143 0 0 1-.23 1.59 12.24 12.24 0 0 0-2.73 2.99c-3.6 5.04-3.56 8.13-3.53 9.97l.01.48a19.311 19.311 0 0 0 .89 4.49c.71.71 3.6 3.45 6.72 3.96a36.608 36.608 0 0 0 18.52-1.1 14.986 14.986 0 0 0 6.07-7.53c.02-1.04-.04-8.19-4.7-12.7a1.01 1.01 0 0 1-.16-.13 1.152 1.152 0 0 1-.34-.88c.01-.01.11-1.88-.96-1.98-.85 0-3.63 2.96-5.83 6.21a1.129 1.129 0 1 1-1.86-1.28c1.52-2.25 5.35-7.43 7.91-7.19 2.27.23 2.93 2.34 3 3.82 5.55 5.57 5.2 14.01 5.18 14.37a1.259 1.259 0 0 1-.04.27c-1.72 5.81-7.03 8.92-7.25 9.05a1.725 1.725 0 0 1-.24.1 41.775 41.775 0 0 1-12.19 1.93zM13.23 11.89a.57.57 0 0 1-.13-.01 1.126 1.126 0 0 1-.99-1.25c.77-7.01 5.68-9.67 7.51-10.1a5.316 5.316 0 0 1 3.48.77 9.066 9.066 0 0 1 .99-.11 1.128 1.128 0 0 1 .16 2.25c-.41.03-.7.08-1.14.15l-.15.03a1.129 1.129 0 0 1-1.05-.4 3.309 3.309 0 0 0-1.77-.49c-.05.02-5.06 1.49-5.8 8.15a1.124 1.124 0 0 1-1.11 1.01z"/></svg>