<svg xmlns="http://www.w3.org/2000/svg" viewBox="0 0 1400 527.5"><defs><style>.cls-1{fill:#efe7be;fill-rule:evenodd;opacity:.2}</style></defs><path id="lines" class="cls-1" d="M1364.32 2494.61l-.77.64-234.19-285.5.78-.64zM1129.49 2209l.52.85-483.358 294.99-.521-.85zm-482.867 295.86l-.463-.89 490.85-258.55.46.89zm489.817-258.1l.6-.79 270.14 204.14-.6.79zm270.05 204.23l-.22-.97 792.45-181.68.22.97zm-42.38 44.41l-.34-.94 835.89-307.96.34.94zm-717.522 9.05l-.393.92L7.044 2232.35l.393-.92zm.41-.03l-.214.98-741.515-162.72.214-.97zm-741.992-163.06l.739.67-332.558 363.87-.739-.67zm-331.869 364.32l-.639.76-372.5-223.6.638-.77zm-372.053-223.28l.454-.89 445.908 231.59-.454.89zm446.036 231.45l-.8-.6L6.84 2231.09l.8.6z" transform="translate(0 -2186.5)"/></svg>