<svg xmlns="http://www.w3.org/2000/svg" width="333" height="300" viewBox="0 0 333 300">
  <defs>
    <style>
      .cls-1 {
        fill: #fff;
        fill-rule: evenodd;
      }
    </style>
  </defs>
  <path id="icon" class="cls-1" d="M628.187,1475.38c43.09-17.46,93.132.5,114.1,42.5,17.182,34.41,9.254,76.11-17.547,103.08q-50.433,50.745-101.055,101.3c-4.424,4.44-8.99,8.77-13.292,13.33-2.073,2.2-3.845,4.77-6.3,6.57a17.5,17.5,0,0,1-15.841,2.4c-12.239-4.21-15.279-19.62-6.669-28.79,5.08-5.4-3.048-13.58-8.142-8.16-8.42,8.96-10.855,21.77-5.581,33.02a28.959,28.959,0,0,0,28.62,16.23c11.688-1.17,18.039-9.08,25.647-16.71q27.99-28.05,55.979-56.12,26.6-26.655,53.2-53.33c10.814-10.84,19.468-23.08,25.039-37.44a100.812,100.812,0,0,0,1.587-67.43c-15.895-47.87-65.972-76.75-115.234-66.91a97.234,97.234,0,0,0-17.575,5.33c-6.782,2.75-3.819,13.92,3.062,11.13h0ZM540.73,1674.82c-6.9,6.52-17.683,6.85-24.545,0s-6.485-17.71,0-24.61c5.079-5.4-3.049-13.58-8.143-8.16-10.759,11.45-11.34,29.56,0,40.93s29.408,10.79,40.831,0c5.406-5.1-2.748-13.26-8.143-8.16h0Zm79.183-79.38c-25.983,26.05-52.088,51.98-77.951,78.14-9.667,9.78-12.989,24.38-5.55,36.64,9.794,16.15,31.865,18.23,45.217,5.46,12.582-12.03,24.627-24.69,36.923-37.01l42.4-42.51c5.247-5.26-2.893-13.42-8.142-8.16q-37.992,38.085-75.981,76.17c-6.1,6.11-13.277,11.02-22.4,7.21a17.612,17.612,0,0,1-9.911-21.08,20.611,20.611,0,0,1,5.583-8.56c13.071-13.2,26.248-26.31,39.371-39.46q19.29-19.35,38.579-38.68c5.247-5.26-2.893-13.42-8.142-8.16h0Zm-169.36,1.17c-18.98-38.99-6.7-87.73,29.139-112.41,33.559-23.1,79.986-20.34,110.141,7.33,14.436,13.24,27.5,28,41.7,41.49,15.343,14.57,2.227,41.04-18.521,38.23-9.624-1.31-15.982-9.63-22.434-16.1l-50.7-50.82v8.16c3.125-3.86,7.988-7.86,13.163-7.96,4.314-.1,9.117,3.22,10.744,7.23,1.309,3.22-.189,6.6-1.912,9.35a34.015,34.015,0,0,1-5.922,6.82c-0.823.75-1.678,1.47-2.541,2.18,1.97-1.63-1.127.92-.826,0.64-1.736,1.63-3.371,3.38-5.051,5.06q-28.242,28.32-56.485,56.63c-4.8,4.81-9.751,9.45-14.068,14.7-6.374,7.76-11.148,15.29-9.923,25.82a29.2,29.2,0,0,0,19.974,24.33c10.25,3.31,21.416.21,29.088-7.16,1.342-1.28,2.616-2.65,3.921-3.98q12.243-12.435,24.486-24.88l51.576-52.41c5.21-5.3-2.928-13.47-8.143-8.17q-22.171,22.53-44.344,45.07-13.622,13.83-27.241,27.68c-6.324,6.42-12.472,14.72-22.647,13.55a17.577,17.577,0,0,1-14.655-22.29c1.466-4.88,5.654-9.3,9.074-13.03,5.809-6.34,12.2-12.23,18.272-18.32,17.654-17.69,35.671-35.1,52.994-53.12,0.478-.5,2.583-2.56.217-0.47,2.033-1.8,4.2-3.33,6.121-5.27,6.135-6.21,11.5-14.76,9.646-23.86-2.309-11.34-14.874-19.24-26-17.26-6.75,1.21-13.367,5.65-17.662,10.96-1.959,2.42-2.386,5.77,0,8.16q25.089,25.155,50.179,50.3c7.862,7.89,15.285,16.91,26.745,19.35,23.344,4.95,44.744-15.55,40.607-39.18-2.289-13.07-13.232-21.57-22.1-30.47-8.624-8.64-17.2-17.33-25.871-25.93-30.951-30.71-78.7-38.46-117.5-18.29a101.179,101.179,0,0,0-49.12,58.58c-7.974,24.96-5.482,52.13,5.932,75.58,3.25,6.68,13.184.83,9.944-5.82h0Z" transform="translate(-430 -1457)"/>
</svg>
